<svg xmlns="http://www.w3.org/2000/svg" width="30.72" height="30.72" viewBox="0 0 30.72 30.72">
  <defs>
    <style>
      .cls-1 {
        fill: #d14b39;
      }
    </style>
  </defs>
  <path id="chevron-with-circle-right" class="cls-1" d="M17.6,16l-3.683-4.01a.818.818,0,0,1,0-1.149.8.8,0,0,1,1.136,0l4.491,4.582a.816.816,0,0,1,0,1.147l-4.491,4.582a.8.8,0,0,1-1.136,0,.816.816,0,0,1,0-1.147L17.6,16ZM16,.64A15.36,15.36,0,1,1,.64,16,15.36,15.36,0,0,1,16,.64Zm0,28.726A13.366,13.366,0,1,0,2.634,16,13.366,13.366,0,0,0,16,29.366Z" transform="translate(-0.64 -0.64)"/>
</svg>
