<svg xmlns="http://www.w3.org/2000/svg" width="21.909" height="24.849" viewBox="0 0 21.909 24.849">
  <defs>
    <style>
      .cls-1 {
        fill: #f4ddb5;
      }
    </style>
  </defs>
  <path id="rocket" class="cls-1" d="M11.512,19.212a3.559,3.559,0,0,0-1.025-2.647,25.366,25.366,0,0,0,1.357-6.385,3.17,3.17,0,0,1,2.448,2.977A7.5,7.5,0,0,1,11.512,19.212ZM4.764,17.76s-1.64-5.262-1.64-7.445a12.364,12.364,0,0,1,.283-2.649h7.47a12.3,12.3,0,0,1,.285,2.65c0,2.15-1.635,7.445-1.635,7.445ZM7.14,8.869a1.522,1.522,0,1,0,1.522,1.522A1.522,1.522,0,0,0,7.14,8.869Zm-.327-6.8V0h.592V2.02A9.325,9.325,0,0,1,10.743,7.1H3.54A9.259,9.259,0,0,1,6.813,2.072ZM2.779,19.212A7.5,7.5,0,0,1,0,13.157,3.17,3.17,0,0,1,2.448,10.18,25.379,25.379,0,0,0,3.8,16.565a3.556,3.556,0,0,0-1.025,2.647Zm5.368.306-.5-.5-.529,1.655-.629-1.655-.43.86-.629-1.555H8.841l-.694,1.192Z" transform="matrix(0.899, 0.438, -0.438, 0.899, 9.064, 0)"/>
</svg>
