<svg xmlns="http://www.w3.org/2000/svg" width="48.45" height="48.45" viewBox="0 0 48.45 48.45">
  <defs>
    <style>
      .cls-1 {
        fill: #f4ddb5;
      }
    </style>
  </defs>
  <path id="chevron-with-circle-right" class="cls-1" d="M27.388,24.865,21.58,18.541a1.291,1.291,0,0,1,0-1.812,1.263,1.263,0,0,1,1.792,0l7.083,7.226a1.287,1.287,0,0,1,0,1.809L23.371,32.99a1.256,1.256,0,0,1-1.792,0,1.287,1.287,0,0,1,0-1.809l5.809-6.318ZM24.865.64A24.225,24.225,0,1,1,.64,24.865,24.225,24.225,0,0,1,24.865.64Zm0,45.305a21.08,21.08,0,1,0-21.08-21.08A21.081,21.081,0,0,0,24.865,45.945Z" transform="translate(49.09 49.09) rotate(180)"/>
</svg>
