<svg xmlns="http://www.w3.org/2000/svg" width="1366" height="774" viewBox="0 0 1366 774">
    <defs>
        <clipPath id="clip-path">
            <path id="Rectangle_52" fill="#fff" stroke="#707070" d="M0 0H1366V774H0z"/>
        </clipPath>
        <style>
            .cls-3{fill:#193247}.cls-4{fill:#f4ddb5}.cls-6{fill:none;stroke:#193247}.cls-7{fill:#ea8724}
        </style>
    </defs>
    <g id="Mask_Group_3" clip-path="url(#clip-path)">
        <g id="Group_73">
            <g id="Group_58" transform="translate(1199.599 -873.899)">
                <path id="Rectangle_22" d="M0 0H1366V800H0z" class="cls-3" transform="translate(-1199.599 841.899)"/>
                <path id="Path_63" d="M-770.256 992.238a4.513 4.513 0 0 0-.746-1.6 5.587 5.587 0 0 0-2.08-3.054c-1.432-1.079-3.107-1.812-4.929-1.178a5.236 5.236 0 0 0-2.983 2.438 5.2 5.2 0 0 0-.387 3.835 5.29 5.29 0 0 0 3.7 3.459 5.583 5.583 0 0 0 3.693.049 4.525 4.525 0 0 0 1.753-.263 3.045 3.045 0 0 0 1.979-3.686z" class="cls-4" transform="translate(220.849 76.22)"/>
                <path id="Path_64" d="M-864.366 979.507c-.017-.125-.032-.252-.047-.377a5.041 5.041 0 0 0-7.542-4.053l-.339.17a5.231 5.231 0 0 0-1.729 7.166 5.047 5.047 0 0 0 4.191 2.47l.443.021a5.233 5.233 0 0 0 5.023-5.397z" class="cls-4" transform="translate(171.601 70.024)"/>
                <path id="Path_65" d="M-767 1013.845a2.94 2.94 0 0 0-4.2 1.912 6.512 6.512 0 0 0-.148 2.837 2.243 2.243 0 0 0 2.8 1.5 6.581 6.581 0 0 0 2.283-1.689 2.937 2.937 0 0 0-.735-4.56z" class="cls-4" transform="translate(226.205 90.666)"/>
                <path id="Path_66" d="M-797.272 970.828c-4.165-2.238-7.649 4.23-3.479 6.472s7.651-4.23 3.479-6.472z" class="cls-4" transform="translate(209.729 67.872)"/>
                <path id="Path_67" d="M-845.081 953.326a4.1 4.1 0 0 0-.75-4.768 3.434 3.434 0 0 0-1.625-.9 1.71 1.71 0 0 0-.393-.011c-.708-.515-1.785-1.227-.092.006a6.5 6.5 0 0 0-3.993-1.513 5.3 5.3 0 0 0-4.229 2.3 5.506 5.506 0 0 0 1.816 8.073 6.762 6.762 0 0 0 2.577.795 3.956 3.956 0 0 0 1.563-.049 12.98 12.98 0 0 0 2.059-.749c.05-.017-1.372.576-.747.345a7.785 7.785 0 0 0 1.316-.581 5.118 5.118 0 0 0 1.744-1.855 4.8 4.8 0 0 0 .754-1.093z" class="cls-4" transform="translate(180.893 55.072)"/>
                <path id="Path_68" d="M-774.042 1027.39a11.935 11.935 0 0 0-2.676-.385c-1.84-.214-3.6 1.229-3 3.213s2.858 2.218 4.275 1.024a12.121 12.121 0 0 0 2.02-1.8 1.255 1.255 0 0 0-.619-2.052z" class="cls-4" transform="translate(221.772 97.785)"/>
                <path id="Path_69" d="M-785.39 1009.491a3.826 3.826 0 0 0-.879-3.961 4.5 4.5 0 0 0-.766-.76c-.07-.07-.109-.1-.144-.135a4.534 4.534 0 0 0-.431-.55c-1.713-1.635-4.013-1.643-6.162-1.2a6.743 6.743 0 0 0-4.571 3.364 6.829 6.829 0 0 0-.021 6.72 5.469 5.469 0 0 0 3.025 2.43 5.96 5.96 0 0 0 3.081.316 3.8 3.8 0 0 0 1.586-.44c.124-.057.234-.135.353-.2a4.237 4.237 0 0 0 2.06-1.2 4.334 4.334 0 0 0 1.042-2.37 3.989 3.989 0 0 0 1.827-2.014z" class="cls-4" transform="translate(211.522 84.922)"/>
                <path id="Path_70" d="M-808.484 965.537a5.136 5.136 0 0 0-2.97-.786c-2.049-.044-1.932 3.139.115 3.183a4.948 4.948 0 0 0 2.9-.7.991.991 0 0 0-.045-1.697z" class="cls-4" transform="translate(204.286 64.906)"/>
                <path id="Path_71" d="M-833.67 954.461a1.178 1.178 0 0 0-.021-.622 1.241 1.241 0 0 0-1.21-.867 15.7 15.7 0 0 0-2.034.156c-1.062.112-1.372 1.785-.186 1.979a17.536 17.536 0 0 0 2.308.3 1.24 1.24 0 0 0 1.143-.946z" class="cls-4" transform="translate(191.105 58.682)"/>
                <path id="Path_72" d="M-856.494 960.337a8.81 8.81 0 0 0-1.929 1.533c-.912 1.146-.015 3.155 1.6 2.6a8.312 8.312 0 0 0 2.1-1.244c1.776-1.249.014-4.147-1.771-2.889z" class="cls-4" transform="translate(180.06 62.411)"/>
                <g id="Group_52" transform="translate(-1168.557 855.008)">
                    <path id="Path_73" d="M-915.321 991.958c-.076-.278-.164-.539-.263-.81a4.975 4.975 0 0 0-1.233-2.222q-.908-1.048-.4-.533a3.747 3.747 0 0 0-3.44-1.849c1.111-.142-2.127-.021-2.363.018a9.421 9.421 0 0 0-1.658.368 9.189 9.189 0 0 0-5.12 4.646c-1.81 3.55-.662 8.51 3.107 10.322a7.77 7.77 0 0 0 10.322-3.106 8.969 8.969 0 0 0 1.048-6.834z" class="cls-4" transform="translate(1310.655 -778.624)"/>
                    <path id="Path_74" d="M-753.033 1032.221a6.254 6.254 0 0 0-3.161-3.436 3.893 3.893 0 0 0-5.218 1.57 3.888 3.888 0 0 0 1.57 5.218 6.245 6.245 0 0 0 4.609.741 3.312 3.312 0 0 0 2.2-4.093z" class="cls-4" transform="translate(1399.833 -756.52)"/>
                    <path id="Path_75" d="M-725.193 1150.605a1.475 1.475 0 0 0-2.233-1.2 17.515 17.515 0 0 0-4.1 4.562c-1.9 2.951 3.378 5.8 4.794 2.575a17.517 17.517 0 0 0 1.539-5.937z" class="cls-4" transform="translate(1415.637 -692.665)"/>
                    <path id="Path_76" d="M-582.189 1265.789a7.106 7.106 0 0 0-2.011-6.453 3.2 3.2 0 0 0-2.557-1.374 7.058 7.058 0 0 0-6.491 1.883c-1.923 1.834-2.245 3.824-2.244 6.307a6.15 6.15 0 0 0 9.282 4.987c2.022-1.339 3.646-2.831 4.021-5.35z" class="cls-4" transform="translate(1487.723 -635.286)"/>
                    <path id="Path_77" d="M-1161.321 869.841a2.164 2.164 0 0 0-.081-.708l-.011-.02c-.006-.05-.008-.078-.018-.144a2.964 2.964 0 0 0-2.636-2.263c-2.393-.462-4.937 1.03-4.833 3.654.086 2.184 3.168 2.048 3.394 0 .109-.011.79-.135.87-.128a7.132 7.132 0 0 1 1.2.274 4.979 4.979 0 0 1 .29.492.84.84 0 0 0 1.3.139 1.793 1.793 0 0 0 .525-1.296z" class="cls-4" transform="translate(1184.774 -841.945)"/>
                    <path id="Path_78" d="M-1133.875 979.167a4.37 4.37 0 0 0-5.85 1.761 4.4 4.4 0 0 0 1.761 5.85 4.368 4.368 0 0 0 5.849-1.761 4.394 4.394 0 0 0-1.76-5.85z" class="cls-4" transform="translate(1199.941 -782.744)"/>
                    <path id="Path_79" d="M-1114.012 915.339a3.826 3.826 0 0 0-2.678-2.468 2.422 2.422 0 0 0-.883-.157c-.193-.027-.321-.041-.406-.046a7.64 7.64 0 0 0-1.081-.226 5.061 5.061 0 0 0-4.6 1.385 4.9 4.9 0 0 0-1.137 4.758 4.9 4.9 0 0 0 3.575 3.341 5.062 5.062 0 0 0 4.6-1.385c.439-.382.957-1.229 1.311-1.5l-.61.769a3.279 3.279 0 0 0 .908-.779 3.874 3.874 0 0 0 1.001-3.692z" class="cls-4" transform="translate(1354.343 -847.54)"/>
                    <path id="Path_80" d="M-1027.771 931.394a6.561 6.561 0 0 0-2.818.4 6.213 6.213 0 0 0-3.453 2.821 6.86 6.86 0 0 0-.448 4.437 6.524 6.524 0 0 0 1.22 2.572c2.824 4.162 9.164 4.328 11.666-.326s-1.137-9.845-6.167-9.904z" class="cls-4" transform="translate(1255.701 -807.726)"/>
                    <g id="Group_51" transform="translate(295.174 30.871)">
                        <path id="Path_81" d="M-974.159 877.967a3.54 3.54 0 0 0-1.664-2.708l-.255-.187-.229-.086a4.7 4.7 0 0 0-3.09-4.006 4.874 4.874 0 0 0-6.049 2.239 6.436 6.436 0 0 0 2.494 8.575 6.782 6.782 0 0 0 3.693.995 4.966 4.966 0 0 0 2.034-.584 6.347 6.347 0 0 0 1.093-.521 4.081 4.081 0 0 0 1.973-3.717z" class="cls-4" transform="translate(986.153 -870.675)"/>
                        <path id="Path_82" d="M-979.427 873.645l.051.044c.699.511.71.511-.051-.044z" class="cls-4" transform="translate(989.706 -869.106)"/>
                    </g>
                    <path id="Path_83" d="M-1061.655 873.624c-.431-1.235-1.482-1.724-2.542-2.383-1.808-1.123-3.5 2.021-1.563 2.91 1.134.52 2.121 1.126 3.388.805a1.078 1.078 0 0 0 .717-1.332z" class="cls-4" transform="translate(1238.814 -839.631)"/>
                    <path id="Path_84" d="M-662.56 916.894a1.254 1.254 0 0 0-1.187 2.208 1.255 1.255 0 0 0 1.187-2.208z" class="cls-4" transform="translate(1451.323 -815.469)"/>
                    <path id="Path_85" d="M-888.067 881.439q-.869-.912-1.77-1.788c-2.088-2.036-4.458 2.338-1.591 2.96.821.179 1.641.342 2.468.489a.986.986 0 0 0 .893-1.661z" class="cls-4" transform="translate(1330.672 -835.346)"/>
                    <path id="Path_86" d="M-778.722 892.924a16.775 16.775 0 0 0-4 .28c-2.227.382-1.065 4.249 1.006 3.338a16.779 16.779 0 0 0 3.494-1.976.894.894 0 0 0-.5-1.642z" class="cls-4" transform="translate(1388.165 -828.065)"/>
                    <path id="Path_87" d="M-717.016 923.776a5.786 5.786 0 0 0-2.193-1.487 2.264 2.264 0 0 0-2.141 3.986 5.816 5.816 0 0 0 2.451 1.007 2.085 2.085 0 0 0 1.883-3.506z" class="cls-4" transform="translate(1420.627 -812.667)"/>
                    <path id="Path_88" d="M-599.453 1001.774c-.426-.619-.837-1.247-1.255-1.874a2.254 2.254 0 0 0-3.87.109 2.255 2.255 0 0 0 2.045 3.287c.752 0 1.5 0 2.256.012a1.015 1.015 0 0 0 .824-1.534z" class="cls-4" transform="translate(1482.781 -772.083)"/>
                    <path id="Path_89" d="M-806.036 974.9a6.394 6.394 0 0 0-2.977-3.243 3.546 3.546 0 0 0-4.762 1.434 3.544 3.544 0 0 0 1.434 4.762 6.4 6.4 0 0 0 4.347.694 2.938 2.938 0 0 0 1.958-3.647z" class="cls-4" transform="translate(1372.19 -786.685)"/>
                    <path id="Path_90" d="M-901.818 1051.775a2.62 2.62 0 0 0-3.954-2.125 5.383 5.383 0 0 0-2.623 3.375c-.805 2.887 3.245 5.066 5.21 2.8a5.378 5.378 0 0 0 1.367-4.05z" class="cls-4" transform="translate(1322.353 -745.448)"/>
                    <path id="Path_91" d="M-586.116 1156.043c-.478-1.14-.706-2.5-1.9-3.141s-2.451-.08-3.665.151a4.387 4.387 0 0 0-3.121 3.859 4.435 4.435 0 0 0 2.294 4.35 4.662 4.662 0 0 0 4.443-.124c1.544-.938 2.702-3.298 1.949-5.095z" class="cls-4" transform="translate(1488.079 -690.852)"/>
                    <path id="Path_92" d="M-640.183 1202.576a7.683 7.683 0 0 0-10.986 4.995l-.118.488a7.546 7.546 0 0 0 3.74 8.219 7.64 7.64 0 0 0 8.916-1.418l.344-.367a7.674 7.674 0 0 0-1.896-11.917z" class="cls-4" transform="translate(1458.151 -664.916)"/>
                    <path id="Path_93" d="M-588.832 1067.926a32.764 32.764 0 0 0-4.568-2.713.551.551 0 0 0-.521.971 32.887 32.887 0 0 0 4.782 2.312.338.338 0 0 0 .307-.57z" class="cls-4" transform="translate(1488.405 -737.06)"/>
                    <path id="Path_94" d="M-1031.208 1015.176a1.407 1.407 0 0 0-1.333 2.478 1.408 1.408 0 0 0 1.333-2.478z" class="cls-4" transform="translate(1256.438 -763.554)"/>
                    <path id="Path_95" d="M-1076.546 999.128l-.809-1.14c-5.221-7.36-12.532 6.243-3.514 6.537l1.4.044a3.6 3.6 0 0 0 2.923-5.441z" class="cls-4" transform="translate(1229.035 -773.694)"/>
                    <path id="Path_96" d="M-988.7 967.573c-4.643-2.5-8.531 4.718-3.879 7.218s8.529-4.718 3.879-7.218z" class="cls-4" transform="translate(1276.821 -788.884)"/>
                    <path id="Path_97" d="M-965.327 1027.093c-.931-1.678-2.38-2.326-4.094-2.96-1.8-.666-4.305.672-5.1 2.32-.8 1.669-.781 4.316.879 5.531 1.475 1.081 2.8 1.932 4.729 1.781a4.441 4.441 0 0 0 3.586-6.672z" class="cls-4" transform="translate(1287.201 -758.821)"/>
                    <path id="Path_99" d="M-826.149 1032.805l-.888.252a10.154 10.154 0 0 0-1.09-.877 2.531 2.531 0 0 0-1.865-.442 2.509 2.509 0 0 0-1.995 3.176 2.542 2.542 0 0 0 3.122 1.678 2.545 2.545 0 0 0 1.487-1.213 13.094 13.094 0 0 0 .542-1.647l.879-.281a.337.337 0 0 0-.192-.646z" class="cls-4" transform="translate(1362.722 -754.729)"/>
                    <path id="Path_100" d="M-654.408 948.422a3.615 3.615 0 0 0-.674-4.244 4.315 4.315 0 0 0-6.433.452 5.052 5.052 0 0 0-.362 5.337 3.349 3.349 0 0 0 3.021 1.625 3.249 3.249 0 0 0 2.7-1.591 3.862 3.862 0 0 0 1.748-1.579z" class="cls-4" transform="translate(1452.34 -801.619)"/>
                    <path id="Path_101" d="M-696.455 1219.333c.264-.7.507-1.406.753-2.114.7-2.036-.721-4.8-2.594-5.7-1.9-.912-4.784-.85-6.185.983-.455.594-.909 1.189-1.348 1.794a6.3 6.3 0 0 0-1.085 3.8c-.127 3.775 4.811 6.429 7.889 4.24a6.289 6.289 0 0 0 2.57-3.003z" class="cls-4" transform="translate(1428.855 -660.032)"/>
                    <path id="Path_102" d="M-627.636 1291.072a8.173 8.173 0 0 0-2.511-1.026 4.567 4.567 0 0 0-1.962-.9 22.236 22.236 0 0 0-2.389-.194c-1.976-.142-3.6 1.972-3.536 3.8a3.725 3.725 0 0 0 3.8 3.537 7.158 7.158 0 0 0 3.877-.9 8.875 8.875 0 0 0 2.814-1.027 1.919 1.919 0 0 0-.093-3.29z" class="cls-4" transform="translate(1465.246 -618.823)"/>
                    <path id="Path_103" d="M-594.492 1223.536a4.912 4.912 0 0 0-1.993-2.321 1.907 1.907 0 1 0-1.758 3.273 4.917 4.917 0 0 0 3.034.381 1.078 1.078 0 0 0 .717-1.333z" class="cls-4" transform="translate(1485.516 -654.864)"/>
                    <path id="Path_104" d="M-724.9 865.7a3.5 3.5 0 0 0-5.005 2.276 7.747 7.747 0 0 0-.176 3.376 2.67 2.67 0 0 0 3.327 1.788 7.81 7.81 0 0 0 2.719-2.011 3.5 3.5 0 0 0-.865-5.429z" class="cls-4" transform="translate(1416.558 -842.647)"/>
                    <path id="Path_105" d="M-733.28 881.817a14.29 14.29 0 0 0-3.187-.457c-2.19-.255-4.282 1.461-3.572 3.824s3.4 2.639 5.089 1.218a14.323 14.323 0 0 0 2.406-2.14 1.5 1.5 0 0 0-.736-2.445z" class="cls-4" transform="translate(1411.281 -834.173)"/>
                    <path id="Path_106" d="M-746.789 860.512a4.557 4.557 0 0 0-1.047-4.718 5.526 5.526 0 0 0-.909-.9c-.086-.083-.13-.124-.173-.159a5.41 5.41 0 0 0-.512-.656c-2.04-1.947-4.779-1.955-7.338-1.429a8.017 8.017 0 0 0-5.439 4c-1.512 2.711-1.322 5.227-.026 8a6.507 6.507 0 0 0 3.6 2.892 7.1 7.1 0 0 0 3.668.377 4.51 4.51 0 0 0 1.889-.526c.148-.066.278-.159.42-.235a5.033 5.033 0 0 0 2.451-1.432 5.169 5.169 0 0 0 1.243-2.821 4.746 4.746 0 0 0 2.173-2.393z" class="cls-4" transform="translate(1399.079 -849.485)"/>
                    <path id="Path_107" d="M-1161.335 940.8a6.029 6.029 0 0 0-8.074 2.43 6.065 6.065 0 0 0 2.43 8.074 6.029 6.029 0 0 0 8.074-2.43 6.065 6.065 0 0 0-2.43-8.074z" class="cls-4" transform="translate(1184.164 -803.113)"/>
                    <path id="Path_108" d="M-1121.017 871.4c-.893-1.6-3.229-2.7-4.886-3.375a2.723 2.723 0 0 0-2.577 4.794c1.478 1.009 3.683 2.352 5.511 2.213a2.418 2.418 0 0 0 1.952-3.632z" class="cls-4" transform="translate(1205.419 -841.34)"/>
                    <path id="Path_109" d="M-669 1198.609c-3.265-1.753-7.934-.564-9.593 2.887a7.206 7.206 0 0 0 2.887 9.592c3.264 1.755 7.932.564 9.592-2.885a7.208 7.208 0 0 0-2.886-9.594z" class="cls-4" transform="translate(1443.411 -666.972)"/>
                    <path id="Path_110" d="M-634.724 1248.717c-7.105-3.818-13.05 7.218-5.935 11.044s13.052-7.221 5.935-11.044z" class="cls-4" transform="translate(1462.165 -640.493)"/>
                    <path id="Path_111" d="M-725.143 994.614c.608-1.628-2.043-3.055-3.066-1.647-.165.229-.332.457-.5.685a1.9 1.9 0 1 0 3.266 1.755l.3-.793z" class="cls-4" transform="translate(1417.091 -775.498)"/>
                    <path id="Path_112" d="M-846 920.709a9.116 9.116 0 0 0-.879-1.788 2.31 2.31 0 0 0-4.249 1.279 9.078 9.078 0 0 0 .255 1.976c.817 3.178 5.95 1.636 4.873-1.467z" class="cls-4" transform="translate(1350.664 -836.875)"/>
                    <path id="Path_113" d="M-668.725 978.8a5.452 5.452 0 0 0-2.2-1.174c-2.882-.792-5.045 3.226-2.792 5.195a5.453 5.453 0 0 0 2.2 1.189c2.853.858 5.084-3.288 2.792-5.21z" class="cls-4" transform="translate(1445.898 -783.351)"/>
                    <path id="Path_114" d="M-627.035 1136.749a4.1 4.1 0 0 0-5.424 1.632c-.969 1.6-.743 2.925-.242 4.573a2.951 2.951 0 0 0 3.619 1.944c1.651-.49 2.878-1.033 3.68-2.723a4.075 4.075 0 0 0-1.633-5.426z" class="cls-4" transform="translate(1467.838 -699.465)"/>
                    <path id="Path_115" d="M-674.219 1160.6c-2.077-1.116-5.073.481-4.819 3a4.876 4.876 0 0 0 .286 1.423 2.8 2.8 0 0 0 3.347 1.8 4.894 4.894 0 0 0 1.345-.547c2.24-1.182 1.918-4.561-.159-5.676z" class="cls-4" transform="translate(1443.576 -686.821)"/>
                    <path id="Path_116" d="M-592.867 1295.978c-3.776-2.031-6.939 3.838-3.154 5.87s6.94-3.838 3.154-5.87z" class="cls-4" transform="translate(1486.542 -615.328)"/>
                    <path id="Path_117" d="M-609.36 1273.387l-.371-1.333a1.56 1.56 0 0 0-2.986.9l.425 1.318a1.532 1.532 0 0 0 2.932-.885z" class="cls-4" transform="translate(1478.579 -628.311)"/>
                    <path id="Path_118" d="M-601.949 972.7l-.008.015a2.527 2.527 0 0 0-3.767-2.024l.009-.015c-2.345.942-3.018 4.237-.559 5.557s4.834-1.051 4.325-3.533z" class="cls-4" transform="translate(1481.207 -787.121)"/>
                    <path id="Path_119" d="M-628.609 969.579a1.714 1.714 0 0 0-1.621 3.017 1.714 1.714 0 0 0 1.621-3.017z" class="cls-4" transform="translate(1468.906 -787.665)"/>
                    <path id="Path_120" d="M-615.1 955.39a1.851 1.851 0 0 0-2.7 1.681 6.906 6.906 0 0 0 .193 1.392 1.078 1.078 0 0 0 1.333.717 6.963 6.963 0 0 0 1.267-.61 1.851 1.851 0 0 0-.093-3.18z" class="cls-4" transform="translate(1475.935 -795.16)"/>
                    <path id="Path_121" d="M-685.537 916.759a1.652 1.652 0 0 0-1.562 2.908 1.652 1.652 0 0 0 1.562-2.908z" class="cls-4" transform="translate(1438.878 -815.567)"/>
                    <path id="Path_122" d="M-658.581 901.663a4.183 4.183 0 0 0-2.835 1.169 2.213 2.213 0 0 0 1.1 3.668 4.188 4.188 0 0 0 3.011-.588 2.311 2.311 0 0 0-1.276-4.249z" class="cls-4" transform="translate(1452.569 -823.433)"/>
                    <path id="Path_123" d="M-1179.288 850.476a3.767 3.767 0 0 0 .712.387l.306.121a5.7 5.7 0 0 0 5.8-.507z" class="cls-4" transform="translate(1179.288 -850.476)"/>
                </g>
                <path id="Path_124" d="M-912.669 1113.164c-.064-.232-.136-.452-.22-.68a4.187 4.187 0 0 0-1.036-1.866q-.761-.883-.338-.449a3.151 3.151 0 0 0-2.89-1.553c.934-.119-1.787-.018-1.984.015a7.867 7.867 0 0 0-1.394.309 7.719 7.719 0 0 0-4.3 3.9c-1.519 2.982-.556 7.149 2.61 8.672a6.525 6.525 0 0 0 8.67-2.609 7.527 7.527 0 0 0 .882-5.739z" class="cls-4" transform="translate(144.795 140.884)"/>
                <path id="Path_125" d="M-834.221 1166.47c-2.947-1.583-7.162-.509-8.661 2.606a6.509 6.509 0 0 0 2.606 8.663c2.948 1.583 7.163.509 8.663-2.607a6.507 6.507 0 0 0-2.608-8.662z" class="cls-4" transform="translate(188.095 171.097)"/>
                <path id="Path_126" d="M-790.634 1153.737a5.258 5.258 0 0 0-2.656-2.886 3.27 3.27 0 0 0-4.383 1.319 3.268 3.268 0 0 0 1.319 4.383 5.257 5.257 0 0 0 3.873.622 2.782 2.782 0 0 0 1.847-3.438z" class="cls-4" transform="translate(212.155 163.018)"/>
                <path id="Path_127" d="M-767.248 1253.187a1.238 1.238 0 0 0-1.875-1.007 14.694 14.694 0 0 0-3.445 3.832c-1.6 2.48 2.838 4.869 4.027 2.164a14.677 14.677 0 0 0 1.293-4.989z" class="cls-4" transform="translate(225.431 216.66)"/>
                <path id="Path_128" d="M-647.116 1349.948a5.971 5.971 0 0 0-1.689-5.419 2.687 2.687 0 0 0-2.149-1.154 5.925 5.925 0 0 0-5.453 1.582c-1.614 1.541-1.886 3.212-1.883 5.3a5.164 5.164 0 0 0 7.8 4.189c1.695-1.125 3.059-2.381 3.374-4.498z" class="cls-4" transform="translate(285.988 264.863)"/>
                <path id="Path_129" d="M-624.565 1324.291a17.427 17.427 0 0 1-2.312-.376 2.749 2.749 0 0 0-3.213 3.44 2.749 2.749 0 0 0 4.577 1.1 17.255 17.255 0 0 1 1.721-1.589 1.4 1.4 0 0 0-.773-2.575z" class="cls-4" transform="translate(300.826 254.628)"/>
                <path id="Path_130" d="M-615.666 1291.957c.1-.7.211-1.4.336-2.091a.855.855 0 0 0-1.44-.773q-.768.732-1.559 1.434c-1.995 1.773 2.281 4.092 2.663 1.43z" class="cls-4" transform="translate(306.822 236.134)"/>
                <path id="Path_131" d="M-1156.2 979.3a3.841 3.841 0 0 0-.64-2.126c-1.178-1.816-4.108-2.939-6.02-1.453a7.029 7.029 0 0 0-1.487 1.382 2.128 2.128 0 0 0-.533.993q-.39 1.078-.021-.029a3.652 3.652 0 0 0 1.485 4.94l-.458-.37a3.216 3.216 0 0 0 1.453.867 6.98 6.98 0 0 0 2 .332c2.401.177 4.234-2.391 4.221-4.536z" class="cls-4" transform="translate(18.089 70.336)"/>
                <path id="Path_132" d="M-1183.416 962.587a3.687 3.687 0 0 0 3.929 3.509 3.627 3.627 0 0 0 1.3-.131c1.573-.474 2.94-2.484 2.224-4.139v-.008a3.9 3.9 0 0 0-1.1-2.056 2.63 2.63 0 0 0-2.649-1.328 3.8 3.8 0 0 0-2.858 1.511 10.844 10.844 0 0 0-.846 2.642z" class="cls-4" transform="translate(8.549 61.556)"/>
                <path id="Path_133" d="M-1174.472 1017c.764-2.343-2.786-4.253-4.321-2.322a10.563 10.563 0 0 0-1.414 2 2.753 2.753 0 0 0 4.848 2.6 10.445 10.445 0 0 0 .887-2.278z" class="cls-4" transform="translate(10.087 90.864)"/>
                <path id="Path_134" d="M-1133.46 971.592c-3.349-1.8-6.152 3.4-2.8 5.2s6.153-3.398 2.8-5.2z" class="cls-4" transform="translate(32.666 68.323)"/>
                <path id="Path_135" d="M-1109.972 978.391a3.792 3.792 0 0 0-1.68-2.054 1.8 1.8 0 1 0-1.664 3.1 3.8 3.8 0 0 0 2.64.267 1.088 1.088 0 0 0 .704-1.313z" class="cls-4" transform="translate(44.868 70.771)"/>
                <path id="Path_136" d="M-1134.074 941.659l-1.58-.764a1.49 1.49 0 0 0-1.41 2.624l1.51.9c1.732 1.025 3.299-1.882 1.48-2.76z" class="cls-4" transform="translate(32.641 52.213)"/>
                <path id="Path_137" d="M-1133.623 1017.328a1.782 1.782 0 0 0-.067-.594l-.009-.017c0-.043-.008-.064-.015-.121a2.493 2.493 0 0 0-2.214-1.9c-2.011-.387-4.146.865-4.059 3.07a1.428 1.428 0 0 0 2.85 0c.092-.009.665-.113.731-.109a5.89 5.89 0 0 1 1.01.231 4.086 4.086 0 0 1 .245.413.705.705 0 0 0 1.094.118 1.514 1.514 0 0 0 .434-1.091z" class="cls-4" transform="translate(31.493 91.256)"/>
                <path id="Path_138" d="M-1166.75 1076.312a3.3 3.3 0 0 0-4.889 1.638 1.715 1.715 0 0 0 .865 2.875 3.294 3.294 0 0 0 4.981-1.333 2.38 2.38 0 0 0-.957-3.18z" class="cls-4" transform="translate(14.513 123.582)"/>
                <path id="Path_139" d="M-1110.565 1109.169a3.67 3.67 0 0 0-4.915 1.479 3.692 3.692 0 0 0 1.479 4.914 3.669 3.669 0 0 0 4.914-1.479 3.692 3.692 0 0 0-1.478-4.914z" class="cls-4" transform="translate(44.233 140.989)"/>
                <path id="Path_140" d="M-1093.879 1055.549a3.214 3.214 0 0 0-2.248-2.073 2.055 2.055 0 0 0-.743-.133c-.162-.023-.271-.034-.342-.038a6.291 6.291 0 0 0-.908-.189 4.251 4.251 0 0 0-3.862 1.161 4.121 4.121 0 0 0-.957 4 4.12 4.12 0 0 0 3 2.806 4.249 4.249 0 0 0 3.862-1.163c.37-.321.8-1.032 1.1-1.262l-.512.646a2.786 2.786 0 0 0 .763-.654 3.257 3.257 0 0 0 .847-3.101z" class="cls-4" transform="translate(50.978 111.56)"/>
                <path id="Path_141" d="M-1021.432 1069.037a5.5 5.5 0 0 0-2.367.338 5.224 5.224 0 0 0-2.9 2.37 5.765 5.765 0 0 0-.376 3.728 5.512 5.512 0 0 0 1.024 2.161 5.713 5.713 0 0 0 9.8-.274 5.713 5.713 0 0 0-5.181-8.323z" class="cls-4" transform="translate(91.075 120.002)"/>
                <g id="Group_53" transform="translate(-873.867 1111.083)">
                    <path id="Path_142" d="M-976.394 1024.155a2.976 2.976 0 0 0-1.4-2.276l-.216-.156-.193-.073a3.946 3.946 0 0 0-2.6-3.364 4.1 4.1 0 0 0-5.082 1.88 5.411 5.411 0 0 0 2.1 7.206 5.709 5.709 0 0 0 3.1.835 4.208 4.208 0 0 0 1.709-.489 5.705 5.705 0 0 0 .918-.439 3.428 3.428 0 0 0 1.664-3.124z" class="cls-4" transform="translate(986.469 -1018.029)"/>
                    <path id="Path_143" d="M-980.82 1020.524l.043.037c.587.426.597.431-.043-.037z" class="cls-4" transform="translate(989.454 -1016.71)"/>
                </g>
                <path id="Path_144" d="M-1049.9 1020.506c-.362-1.038-1.246-1.447-2.135-2-1.518-.944-2.94 1.7-1.313 2.444a4.134 4.134 0 0 0 2.846.676.9.9 0 0 0 .602-1.12z" class="cls-4" transform="translate(76.889 93.2)"/>
                <path id="Path_145" d="M-879.682 954.636A7.892 7.892 0 0 0-882.86 956a1.473 1.473 0 0 0 .735 2.444 7.891 7.891 0 0 0 3.4-.614 1.67 1.67 0 0 0-.957-3.194z" class="cls-4" transform="translate(167.124 59.529)"/>
                <path id="Path_146" d="M-917.441 919.592q-.63-.564-1.261-1.126a2.238 2.238 0 0 0-3.471.552 2.242 2.242 0 0 0 1.455 3.2l1.635.429a1.812 1.812 0 0 0 1.642-3.055z" class="cls-4" transform="translate(148.435 25.141)"/>
                <path id="Path_147" d="M-731.329 1040.855a9.324 9.324 0 0 0-.379-1.181c-1.015-3.069-5.656-3.888-7.179-.723a3.952 3.952 0 0 0 4.565 5.586 9.053 9.053 0 0 0 1.194-.335 2.8 2.8 0 0 0 1.799-3.347z" class="cls-4" transform="translate(243.19 103.045)"/>
                <path id="Path_148" d="M-904.071 1027.07c-.488-.51-.983-1.009-1.487-1.5-1.754-1.71-3.746 1.964-1.337 2.487.689.15 1.379.287 2.074.411a.83.83 0 0 0 .75-1.398z" class="cls-4" transform="translate(154.055 96.8)"/>
                <path id="Path_149" d="M-812.215 1036.72a13.966 13.966 0 0 0-3.364.235c-1.871.321-.894 3.569.845 2.8a14.158 14.158 0 0 0 2.934-1.66.752.752 0 0 0-.415-1.375z" class="cls-4" transform="translate(202.353 102.916)"/>
                <path id="Path_150" d="M-760.377 1062.637a4.878 4.878 0 0 0-1.843-1.25 1.9 1.9 0 0 0-1.8 3.349 4.863 4.863 0 0 0 2.059.847 1.753 1.753 0 0 0 1.584-2.946z" class="cls-4" transform="translate(229.623 115.851)"/>
                <path id="Path_151" d="M-719.413 1020.057a5.107 5.107 0 0 0-6.839 2.059 5.139 5.139 0 0 0 2.057 6.839 5.107 5.107 0 0 0 6.839-2.059 5.137 5.137 0 0 0-2.057-6.839z" class="cls-4" transform="translate(249.791 93.823)"/>
                <path id="Path_152" d="M-661.618 1128.159c-.358-.52-.7-1.047-1.055-1.574a1.894 1.894 0 0 0-3.251.092 1.894 1.894 0 0 0 1.718 2.762c.633 0 1.264 0 1.9.011a.854.854 0 0 0 .688-1.291z" class="cls-4" transform="translate(281.837 149.944)"/>
                <path id="Path_153" d="M-915.623 1170.163a2.2 2.2 0 0 0-3.321-1.784 4.518 4.518 0 0 0-2.2 2.835c-.676 2.424 2.727 4.255 4.377 2.352a4.52 4.52 0 0 0 1.144-3.403z" class="cls-4" transform="translate(147.067 172.32)"/>
                <path id="Path_154" d="M-815.677 1228.008l-1.628-.676a1.723 1.723 0 0 0-1.631 3.032l1.463.986c2.031 1.371 4.065-2.402 1.796-3.342z" class="cls-4" transform="translate(200.664 203.547)"/>
                <path id="Path_155" d="M-710.516 1211.881a6.363 6.363 0 0 0-8.522 2.565 6.4 6.4 0 0 0 2.565 8.523 6.365 6.365 0 0 0 8.522-2.566 6.4 6.4 0 0 0-2.565-8.522z" class="cls-4" transform="translate(253.531 195.094)"/>
                <path id="Path_156" d="M-650.414 1257.755c-.4-.957-.593-2.1-1.594-2.638s-2.059-.066-3.078.127a3.687 3.687 0 0 0-2.623 3.243 3.726 3.726 0 0 0 1.927 3.653 3.912 3.912 0 0 0 3.732-.1 3.789 3.789 0 0 0 1.636-4.285z" class="cls-4" transform="translate(286.287 218.183)"/>
                <path id="Path_157" d="M-677.575 1172.375a8.04 8.04 0 0 0-3.239 1.758 1.038 1.038 0 0 0 .515 1.712 8.037 8.037 0 0 0 3.669-.321c2.084-.43 1.03-3.942-.945-3.149z" class="cls-4" transform="translate(273.943 174.538)"/>
                <path id="Path_158" d="M-722.061 1140.222a3.078 3.078 0 0 0 .306-.465 2.6 2.6 0 0 0-1.667-3.809 1.873 1.873 0 0 0-1.548.324 2.464 2.464 0 0 0-3.171.223 3.353 3.353 0 0 0-.964 2.292 2.385 2.385 0 0 0 .118.871c.037.11.046.1.047.072l.032.194c.575 1.907 2.841 2.6 4.579 2.051a3.739 3.739 0 0 0 2.047-1.455l-.02.028.026-.034c.031-.044.073-.063.1-.109s.082-.128.115-.183z" class="cls-4" transform="translate(248.574 155.277)"/>
                <path id="Path_159" d="M-695.835 1296.845a6.454 6.454 0 0 0-9.228 4.2c-.032.138-.064.275-.1.411a6.339 6.339 0 0 0 3.141 6.9 6.424 6.424 0 0 0 7.492-1.19l.287-.31a6.447 6.447 0 0 0-1.592-10.011z" class="cls-4" transform="translate(261.145 239.971)"/>
                <path id="Path_160" d="M-652.7 1183.731a27.675 27.675 0 0 0-3.838-2.277.463.463 0 0 0-.437.815 27.7 27.7 0 0 0 4.016 1.943.285.285 0 0 0 .259-.481z" class="cls-4" transform="translate(286.56 179.366)"/>
                <path id="Path_161" d="M-871.633 1216.21a1.568 1.568 0 0 0-1.484 2.76 1.568 1.568 0 0 0 1.484-2.76z" class="cls-4" transform="translate(172.066 197.654)"/>
                <path id="Path_162" d="M-1024.32 1139.418a1.182 1.182 0 0 0-1.118 2.082 1.182 1.182 0 0 0 1.118-2.082z" class="cls-4" transform="translate(91.694 157.109)"/>
                <path id="Path_163" d="M-1062.406 1125.936l-.68-.957c-4.385-6.182-10.527 5.245-2.95 5.491l1.172.038a3.025 3.025 0 0 0 2.458-4.572z" class="cls-4" transform="translate(68.674 148.591)"/>
                <path id="Path_164" d="M-988.612 1099.429c-3.9-2.1-7.166 3.963-3.258 6.063s7.17-3.963 3.258-6.063z" class="cls-4" transform="translate(108.817 135.831)"/>
                <path id="Path_165" d="M-968.974 1149.43a5.672 5.672 0 0 0-3.439-2.487 3.877 3.877 0 0 0-4.284 1.949c-.674 1.4-.656 3.627.74 4.646a5.653 5.653 0 0 0 3.971 1.5 3.731 3.731 0 0 0 3.012-5.608z" class="cls-4" transform="translate(117.537 161.085)"/>
                <path id="Path_166" d="M-919.437 1070.944c-.414-1.788-2.537-2.743-4.068-3.379a1.851 1.851 0 0 0-1.751 3.258c1.375.928 3.342 2.172 5.063 1.528a1.163 1.163 0 0 0 .756-1.407z" class="cls-4" transform="translate(144.458 119.131)"/>
                <path id="Path_167" d="M-852.056 1154.229l-.746.211a8.8 8.8 0 0 0-.915-.737 2.133 2.133 0 0 0-1.567-.371 2.109 2.109 0 0 0-1.677 2.668 2.136 2.136 0 0 0 2.624 1.409 2.134 2.134 0 0 0 1.249-1.019 10.705 10.705 0 0 0 .455-1.385l.738-.235a.283.283 0 0 0-.161-.541z" class="cls-4" transform="translate(180.979 164.522)"/>
                <path id="Path_168" d="M-620.315 1229.4a3.638 3.638 0 0 0-1.593-3.179 3.633 3.633 0 0 0-3.534.428c-2.164.014-4.648 1.362-5.441 3.261l-.588 1.406c-1.209 2.893-.676 6.638 2.45 8.14 3.174 1.527 6.258.358 8.14-2.448l.848-1.267a6.214 6.214 0 0 0-.282-6.341z" class="cls-4" transform="translate(299.842 202.887)"/>
                <path id="Path_169" d="M-622.431 1198.4a5.272 5.272 0 0 0-7.061 2.124 5.3 5.3 0 0 0 2.124 7.061 5.274 5.274 0 0 0 7.062-2.125 5.3 5.3 0 0 0-2.125-7.06z" class="cls-4" transform="translate(300.902 188.036)"/>
                <path id="Path_170" d="M-1116.533 957.263c-2.184-1.174-4.012 2.218-1.825 3.393s4.012-2.218 1.825-3.393z" class="cls-4" transform="translate(42.401 60.822)"/>
                <path id="Path_171" d="M-1019.119 994.141a5.384 5.384 0 0 0-.318-.723 3.412 3.412 0 0 0-3.015-1.62 5.547 5.547 0 0 0-.769.131 6.24 6.24 0 0 0-6.044 4.009 6.31 6.31 0 0 0-.442 4.382 5.845 5.845 0 0 0 2.786 3.411 5.818 5.818 0 0 0 4.382.442 6.763 6.763 0 0 0 3.41-2.786 6.255 6.255 0 0 0 .01-7.246z" class="cls-4" transform="translate(89.639 79.194)"/>
                <path id="Path_173" d="M-1153.979 943.492c-1.129-.119-2.244-.2-3.378-.22a2.537 2.537 0 0 0-2.32 3.242 2.538 2.538 0 0 0 3.723 1.423c.934-.646 1.82-1.327 2.7-2.048a1.445 1.445 0 0 0-.725-2.397z" class="cls-4" transform="translate(21.041 53.558)"/>
                <path id="Path_174" d="M-624.073 1358.362a2.992 2.992 0 0 0-1.495-1.721 3.1 3.1 0 0 0-4.44 1.721z" class="cls-4" transform="translate(300.93 271.737)"/>
                <path id="Path_175" d="M-743.1 1310.924c.22-.588.426-1.182.631-1.776a4.344 4.344 0 0 0-2.178-4.79c-1.593-.766-4.019-.714-5.2.827-.382.5-.763 1-1.133 1.507a5.294 5.294 0 0 0-.911 3.191c-.107 3.171 4.042 5.4 6.627 3.561a5.281 5.281 0 0 0 2.164-2.52z" class="cls-4" transform="translate(236.535 244.074)"/>
                <path id="Path_176" d="M-657.45 1314.454a4.138 4.138 0 0 0-1.675-1.95 1.6 1.6 0 1 0-1.476 2.75 4.125 4.125 0 0 0 2.549.321.909.909 0 0 0 .602-1.121z" class="cls-4" transform="translate(284.133 248.415)"/>
                <path id="Path_177" d="M-626.521 1280.64c-.021-.073-.021-.146-.046-.22a4.685 4.685 0 0 0-.753-1.536 5.611 5.611 0 0 0-3.842-2.723 4.361 4.361 0 0 0-4.1 1.03l.4-.391a5.384 5.384 0 0 0-1.764 7.313 6.288 6.288 0 0 0 3.76 2.809 5.042 5.042 0 0 0 2.969-.162 6.771 6.771 0 0 0 1.612-.6c1.958-1.002 2.513-3.587 1.764-5.52z" class="cls-4" transform="translate(297.035 229.35)"/>
                <path id="Path_178" d="M-1150.5 964.964a3.764 3.764 0 0 0-1.857-4.084 4.615 4.615 0 0 0-5.459.877 3.712 3.712 0 0 0-.48 4.484 4.377 4.377 0 0 0 4.334 2 4.3 4.3 0 0 0 3.462-3.277z" class="cls-4" transform="translate(21.534 62.575)"/>
                <path id="Path_180" d="M-897.077 982.116c.8-2.186-2.72-4.081-4.1-2.2a11.757 11.757 0 0 0-1.349 1.995 2.574 2.574 0 0 0 4.526 2.43 11.687 11.687 0 0 0 .923-2.225z" class="cls-4" transform="translate(156.806 72.511)"/>
                <path id="Path_181" d="M-874.784 989.356a2.021 2.021 0 0 0-2.9 1.319 14.273 14.273 0 0 0-.264 2.418 1.189 1.189 0 0 0 1.8.966 13.989 13.989 0 0 0 1.871-1.556 2.019 2.019 0 0 0-.507-3.147z" class="cls-4" transform="translate(169.935 77.785)"/>
                <path id="Path_182" d="M-1133.633 1076.938a5.063 5.063 0 0 0-6.783 2.04 5.1 5.1 0 0 0 2.04 6.783 5.066 5.066 0 0 0 6.784-2.04 5.1 5.1 0 0 0-2.041-6.783z" class="cls-4" transform="translate(30.979 123.877)"/>
                <path id="Path_183" d="M-1163.107 1044.891a18.158 18.158 0 0 0-4.73 2.188 2 2 0 0 0-.5 2.958 2.016 2.016 0 0 0 3 .136 17.539 17.539 0 0 0 3.558-3.665c.572-.879-.458-1.825-1.328-1.617z" class="cls-4" transform="translate(16.284 107.231)"/>
                <path id="Path_184" d="M-1099.763 1018.638c-.75-1.346-2.714-2.268-4.1-2.835a2.287 2.287 0 0 0-2.164 4.027c1.239.847 3.093 1.976 4.629 1.859a2.031 2.031 0 0 0 1.635-3.051z" class="cls-4" transform="translate(48.836 91.764)"/>
                <path id="Path_185" d="M-666.983 1274.073a6.018 6.018 0 0 0-8.059 2.426 6.053 6.053 0 0 0 2.425 8.057 6.016 6.016 0 0 0 8.057-2.425 6.052 6.052 0 0 0-2.423-8.058z" class="cls-4" transform="translate(276.795 227.973)"/>
                <path id="Path_186" d="M-691.248 1335.607c-5.97-3.208-10.964 6.064-4.985 9.277s10.964-6.065 4.985-9.277z" class="cls-4" transform="translate(264.517 260.488)"/>
                <path id="Path_187" d="M-766.55 1193.717a3.1 3.1 0 0 0-1.339-1.137 1.1 1.1 0 0 0-1.46.439 3.1 3.1 0 0 0-.489 1.687c-.106 2.977 5.038 1.451 3.288-.989z" class="cls-4" transform="translate(227.054 185.211)"/>
                <path id="Path_188" d="M-767.206 1122.145c.512-1.368-1.715-2.566-2.574-1.383q-.211.286-.419.574a1.6 1.6 0 1 0 2.743 1.474z" class="cls-4" transform="translate(226.653 147.076)"/>
                <path id="Path_189" d="M-868.732 1060.06a7.65 7.65 0 0 0-.738-1.5 1.941 1.941 0 0 0-3.569 1.074 7.6 7.6 0 0 0 .214 1.66c.685 2.668 4.997 1.372 4.093-1.234z" class="cls-4" transform="translate(172.53 113.996)"/>
                <path id="Path_190" d="M-684.787 1241.548a3.44 3.44 0 0 0-4.557 1.371 4.223 4.223 0 0 0-.2 3.841 2.479 2.479 0 0 0 3.04 1.634 4.229 4.229 0 0 0 3.092-2.288 3.422 3.422 0 0 0-1.375-4.558z" class="cls-4" transform="translate(269.283 210.948)"/>
                <path id="Path_191" d="M-724.426 1261.582c-1.744-.937-4.261.4-4.048 2.52a4.065 4.065 0 0 0 .24 1.2 2.351 2.351 0 0 0 2.812 1.511 4.073 4.073 0 0 0 1.13-.46c1.882-.994 1.611-3.833-.134-4.771z" class="cls-4" transform="translate(248.901 221.57)"/>
                <path id="Path_192" d="M-641.391 1349.774l-.327.654a1.5 1.5 0 0 0 2.633 1.414l.364-.633c.972-1.691-1.794-3.182-2.67-1.435z" class="cls-4" transform="translate(294.651 267.911)"/>
                <path id="Path_193" d="M-619.582 1347.954a4.852 4.852 0 0 0-.8-1.1c-1.226-1.412-3.634-.793-4.441.707s.011 3.852 1.862 4.093a4.854 4.854 0 0 0 1.36.064 2.523 2.523 0 0 0 2.019-3.764z" class="cls-4" transform="translate(303.503 266.363)"/>
                <path id="Path_194" d="M-629.243 1310.13c-.135-.289-.286-.562-.439-.84a1.242 1.242 0 0 0-2.138.06 1.242 1.242 0 0 0 1.129 1.815c.318-.026.628-.05.943-.1a.628.628 0 0 0 .505-.935z" class="cls-4" transform="translate(299.9 246.627)"/>
                <path id="Path_195" d="M-644.562 1334.243a1.8 1.8 0 0 0-3.168-1.7l-.39.62c-1.267 2.017 2.271 3.923 3.255 1.748z" class="cls-4" transform="translate(291.218 258.743)"/>
                <path id="Path_196" d="M-669.94 1356.333q-.158-.561-.313-1.12a1.311 1.311 0 0 0-2.51.755l.358 1.106a1.288 1.288 0 0 0 2.465-.741z" class="cls-4" transform="translate(278.306 270.722)"/>
                <path id="Path_197" d="M-624.722 1182.521a1.915 1.915 0 0 0-.818-1.349 1.169 1.169 0 1 0-1.079 2.007 1.913 1.913 0 0 0 1.577-.064.641.641 0 0 0 .32-.594z" class="cls-4" transform="translate(302.259 179.088)"/>
                <path id="Path_198" d="M-645.383 1153.035c-.257.668-.721 1.7.147 2.169s1.475-.492 1.889-1.074c.87-1.221-1.498-2.495-2.036-1.095z" class="cls-4" transform="translate(292.619 164.058)"/>
                <path id="Path_199" d="M-641.7 1130.214a1.08 1.08 0 0 0-1.021 1.9 1.08 1.08 0 0 0 1.021-1.9z" class="cls-4" transform="translate(293.923 152.253)"/>
                <path id="Path_200" d="M-711.289 1044.06a3.517 3.517 0 0 0-2.383.984 1.858 1.858 0 0 0 .928 3.08 3.513 3.513 0 0 0 2.529-.494 1.942 1.942 0 0 0-1.074-3.57z" class="cls-4" transform="translate(256.456 106.807)"/>
                <path id="Path_201" d="M-752 995.544c-.484.937-1.018 1.735-.744 2.811a.907.907 0 0 0 1.119.6c1.048-.367 1.42-1.252 1.933-2.172a1.311 1.311 0 0 0-2.308-1.239z" class="cls-4" transform="translate(236.045 80.819)"/>
                <path id="Path_203" d="M-1113.752 942.367c-.856.336-2.259 1.085-1.912 2.238s1.94 1 2.829.813c2.012-.43.998-3.806-.917-3.051z" class="cls-4" transform="translate(44.316 53.022)"/>
                <path id="Path_204" d="M-1125.612 947.949a1.465 1.465 0 0 0-1.386 2.578 1.465 1.465 0 0 0 1.386-2.578z" class="cls-4" transform="translate(37.961 55.931)"/>
                <path id="Path_205" d="M-1142.091 952.3a2.516 2.516 0 0 0-1.99-3.7c-1.473-.153-3.054.723-2.939 2.432v.021a2.178 2.178 0 0 0-.037.3 1.924 1.924 0 0 0 1.926 1.894 2.29 2.29 0 0 0 1.079.057 2.211 2.211 0 0 0 1.961-1.004z" class="cls-4" transform="translate(27.76 56.368)"/>
                <path id="Path_206" d="M-1164.826 957.171a5.545 5.545 0 0 0-.171-1.53 1.619 1.619 0 0 0-3.1.932 5.609 5.609 0 0 0 .7 1.371 1.4 1.4 0 0 0 2.571-.773z" class="cls-4" transform="translate(16.603 59.506)"/>
                <path id="Path_207" d="M-1169.868 971.686a5.054 5.054 0 0 0-.89-.562 1.234 1.234 0 0 0-1.168 2.172 5.06 5.06 0 0 0 .96.431c1.089.399 2.03-1.353 1.098-2.041z" class="cls-4" transform="translate(14.293 68.201)"/>
                <path id="Path_208" d="M-1172.393 994.861c.176-1.794-2.5-1.994-2.435-.229a6.232 6.232 0 0 0 .547 2.781.725.725 0 0 0 1.247-.037 5.652 5.652 0 0 0 .641-2.515z" class="cls-4" transform="translate(13.087 80.046)"/>
                <path id="Path_209" d="M-1141.7 996.626l-.237-.24a4.788 4.788 0 0 0-7.915 2.381c-.023.11-.044.22-.066.332-.376 1.919.454 4.651 2.476 5.441l.257.1a4.828 4.828 0 0 0 6.265-1.884l.159-.226c1.261-1.782.461-4.492-.939-5.904z" class="cls-4" transform="translate(26.204 80.935)"/>
                <path id="Path_210" d="M-1118.55 996.462a10.81 10.81 0 0 0-.359-1.6 1.927 1.927 0 0 0-3.689 1.11 10.993 10.993 0 0 0 .585 1.533c.784 1.657 3.724.773 3.463-1.043z" class="cls-4" transform="translate(40.633 80.115)"/>
                <path id="Path_211" d="M-1182.675 1325.527c-1.6 2.481 2.838 4.869 4.027 2.164a14.715 14.715 0 0 0 1.294-4.987 1.24 1.24 0 0 0-1.877-1.009 14.749 14.749 0 0 0-3.445 3.831z" class="cls-4" transform="translate(8.657 253.387)"/>
                <path id="Path_212" d="M-1015.417 1332.781l-.766 1.579a1.3 1.3 0 0 0 .035 1.284 1.2 1.2 0 0 0 1.146.616 1.3 1.3 0 0 0 1.088-.678l.894-1.51c.895-1.511-1.631-2.872-2.397-1.291z" class="cls-4" transform="translate(96.823 258.974)"/>
                <path id="Path_213" d="M-1013.236 1304.57a1.413 1.413 0 0 0-2.488-1.337q-.518.715-1.036 1.434c-1.249 1.73 2.146 3.559 2.9 1.559z" class="cls-4" transform="translate(96.454 243.369)"/>
                <path id="Path_214" d="M-1141.5 1110.368a9.112 9.112 0 0 0-.381-1.18c-1.015-3.069-5.655-3.888-7.177-.723a3.951 3.951 0 0 0 4.564 5.586 9.255 9.255 0 0 0 1.194-.335 2.8 2.8 0 0 0 1.8-3.348z" class="cls-4" transform="translate(26.485 139.772)"/>
                <path id="Path_215" d="M-1124.806 1126.37a1.054 1.054 0 0 0-1 1.855 1.054 1.054 0 0 0 1-1.855z" class="cls-4" transform="translate(38.704 150.223)"/>
                <path id="Path_216" d="M-1170.551 1132.152a4.89 4.89 0 0 0-1.843-1.25 1.9 1.9 0 0 0-1.8 3.349 4.872 4.872 0 0 0 2.059.847 1.753 1.753 0 0 0 1.584-2.946z" class="cls-4" transform="translate(12.917 152.578)"/>
                <path id="Path_217" d="M-1129.587 1089.572a5.107 5.107 0 0 0-6.839 2.059 5.138 5.138 0 0 0 2.058 6.839 5.108 5.108 0 0 0 6.839-2.059 5.14 5.14 0 0 0-2.058-6.839z" class="cls-4" transform="translate(33.085 130.55)"/>
                <path id="Path_218" d="M-1071.792 1197.674c-.358-.52-.7-1.049-1.053-1.574a1.9 1.9 0 0 0-3.252.092 1.9 1.9 0 0 0 1.719 2.761c.631 0 1.262 0 1.894.011a.854.854 0 0 0 .692-1.29z" class="cls-4" transform="translate(65.131 186.671)"/>
                <path id="Path_219" d="M-1120.688 1281.4a6.366 6.366 0 0 0-8.524 2.564 6.4 6.4 0 0 0 2.565 8.522 6.364 6.364 0 0 0 8.523-2.564 6.4 6.4 0 0 0-2.564-8.522z" class="cls-4" transform="translate(-7.409 189.093)"/>
                <path id="Path_220" d="M-1060.588 1327.27c-.4-.957-.593-2.1-1.594-2.638s-2.059-.066-3.078.128a3.687 3.687 0 0 0-2.623 3.241 3.725 3.725 0 0 0 1.927 3.653 3.911 3.911 0 0 0 3.732-.1 3.786 3.786 0 0 0 1.636-4.284z" class="cls-4" transform="translate(69.581 254.91)"/>
                <path id="Path_221" d="M-1087.75 1241.89a8.066 8.066 0 0 0-3.239 1.758 1.039 1.039 0 0 0 .515 1.712 8.068 8.068 0 0 0 3.671-.321c2.083-.43 1.027-3.939-.947-3.149z" class="cls-4" transform="translate(57.237 211.265)"/>
                <path id="Path_222" d="M-1132.235 1209.737a3.125 3.125 0 0 0 .307-.464 2.606 2.606 0 0 0-1.669-3.809 1.873 1.873 0 0 0-1.548.324 2.464 2.464 0 0 0-3.171.223 3.352 3.352 0 0 0-.964 2.292 2.385 2.385 0 0 0 .118.871c.037.11.046.1.047.074l.032.193c.575 1.907 2.841 2.6 4.579 2.051a3.726 3.726 0 0 0 2.046-1.455l-.018.027.024-.034c.032-.044.073-.063.1-.109s.084-.129.117-.184z" class="cls-4" transform="translate(31.868 192.004)"/>
                <path id="Path_223" d="M-1062.87 1253.246a27.605 27.605 0 0 0-3.838-2.277.463.463 0 0 0-.437.815 27.706 27.706 0 0 0 4.016 1.942.285.285 0 0 0 .259-.48z" class="cls-4" transform="translate(69.855 216.093)"/>
                <path id="Path_224" d="M-1030.49 1298.915a3.632 3.632 0 0 0-1.592-3.179 3.634 3.634 0 0 0-3.534.428c-2.164.014-4.646 1.36-5.441 3.262q-.294.7-.588 1.406c-1.207 2.893-.676 6.638 2.45 8.14 3.174 1.527 6.259.357 8.14-2.448l.848-1.267a6.209 6.209 0 0 0-.283-6.342z" class="cls-4" transform="translate(83.136 239.614)"/>
                <path id="Path_225" d="M-1032.6 1267.913a5.274 5.274 0 0 0-7.062 2.124 5.3 5.3 0 0 0 2.126 7.061 5.272 5.272 0 0 0 7.061-2.124 5.3 5.3 0 0 0-2.125-7.061z" class="cls-4" transform="translate(84.196 224.763)"/>
                <path id="Path_226" d="M-1117.958 1152.857a3.039 3.039 0 0 0-.567-3.567 3.627 3.627 0 0 0-5.4.381 4.247 4.247 0 0 0-.3 4.484 2.818 2.818 0 0 0 2.539 1.365 2.728 2.728 0 0 0 2.266-1.337 3.248 3.248 0 0 0 1.462-1.326z" class="cls-4" transform="translate(39.558 161.859)"/>
                <path id="Path_227" d="M-1036.7 1350.154c-.02-.072-.021-.145-.046-.219a4.675 4.675 0 0 0-.754-1.536 5.611 5.611 0 0 0-3.842-2.724 4.364 4.364 0 0 0-4.1 1.03l.4-.391a5.384 5.384 0 0 0-1.764 7.313 6.288 6.288 0 0 0 3.761 2.809 5.044 5.044 0 0 0 2.97-.162 6.764 6.764 0 0 0 1.611-.6c1.964-1.001 2.518-3.585 1.764-5.52z" class="cls-4" transform="translate(80.329 266.077)"/>
                <path id="Path_228" d="M-996.145 1360.589c1.493-2.531 1.327-6.058-2.01-7.851-5.391-2.9-10.02 3.593-7.666 7.851z" class="cls-4" transform="translate(102.046 269.509)"/>
                <path id="Path_229" d="M-1177.173 1083.36a2.941 2.941 0 0 0-4.2 1.912 6.511 6.511 0 0 0-.148 2.836 2.243 2.243 0 0 0 2.8 1.5 6.556 6.556 0 0 0 2.283-1.689 2.937 2.937 0 0 0-.735-4.559z" class="cls-4" transform="translate(9.499 127.393)"/>
                <path id="Path_230" d="M-1077.157 1343.588a6.016 6.016 0 0 0-8.057 2.426 6.053 6.053 0 0 0 2.424 8.057 6.019 6.019 0 0 0 8.059-2.424 6.055 6.055 0 0 0-2.426-8.059z" class="cls-4" transform="translate(60.089 264.7)"/>
                <path id="Path_231" d="M-1176.722 1263.232a3.118 3.118 0 0 0-1.339-1.137 1.1 1.1 0 0 0-1.461.439 3.124 3.124 0 0 0-.489 1.687c-.107 2.979 5.032 1.451 3.289-.989z" class="cls-4" transform="translate(10.348 221.937)"/>
                <path id="Path_232" d="M-1177.379 1191.66c.51-1.368-1.716-2.566-2.575-1.383l-.417.575a1.6 1.6 0 1 0 2.743 1.473c.082-.225.165-.443.249-.665z" class="cls-4" transform="translate(9.947 183.803)"/>
                <path id="Path_233" d="M-1129.985 1178.38a4.571 4.571 0 0 0-1.851-.987 2.589 2.589 0 0 0-2.346 4.364 4.567 4.567 0 0 0 1.845 1c2.404.717 4.279-2.768 2.352-4.377z" class="cls-4" transform="translate(34.146 177.205)"/>
                <path id="Path_234" d="M-1094.962 1311.063a3.441 3.441 0 0 0-4.557 1.371 4.223 4.223 0 0 0-.2 3.841 2.478 2.478 0 0 0 3.04 1.634 4.225 4.225 0 0 0 3.09-2.288 3.422 3.422 0 0 0-1.373-4.558z" class="cls-4" transform="translate(52.577 247.675)"/>
                <path id="Path_235" d="M-1134.6 1331.1c-1.745-.937-4.262.4-4.048 2.52a4.061 4.061 0 0 0 .24 1.2 2.35 2.35 0 0 0 2.812 1.512 4.083 4.083 0 0 0 1.128-.46c1.883-.998 1.613-3.837-.132-4.772z" class="cls-4" transform="translate(32.196 258.296)"/>
                <path id="Path_236" d="M-1018.739 1347.5a6.7 6.7 0 0 0-2.925-2.3 1.285 1.285 0 0 0-1.215 2.263 6.7 6.7 0 0 0 3.531 1.169.753.753 0 0 0 .609-1.132z" class="cls-4" transform="translate(93.018 265.822)"/>
                <path id="Path_237" d="M-998.328 1337.365l-.058-.044c-3.153-2.389-3.017 4.657.049 2.125l.057-.046a1.439 1.439 0 0 0-.048-2.035z" class="cls-4" transform="translate(105.087 261.479)"/>
                <path id="Path_238" d="M-1007.741 1317.727a1.234 1.234 0 0 0-1.168 2.172 1.234 1.234 0 0 0 1.168-2.172z" class="cls-4" transform="translate(100.413 251.311)"/>
                <path id="Path_239" d="M-1017.829 1281.855c-.214.243-.269.18-.592.09-.358-.1-.593-.326-1.016-.322-.266 0-.888-.037-.193.078a1.1 1.1 0 0 0-1.3.816 2.074 2.074 0 0 0 2.26 2.5 3.208 3.208 0 0 0 2.943-1.641 1.317 1.317 0 0 0-2.102-1.521z" class="cls-4" transform="translate(94.384 232.222)"/>
                <path id="Path_240" d="M-1034.9 1252.036a1.909 1.909 0 0 0-.818-1.349 1.169 1.169 0 1 0-1.078 2.007 1.916 1.916 0 0 0 1.576-.064.641.641 0 0 0 .32-.594z" class="cls-4" transform="translate(85.553 215.814)"/>
                <path id="Path_241" d="M-1055.557 1222.55c-.257.668-.721 1.7.147 2.168s1.475-.492 1.89-1.074c.869-1.22-1.497-2.494-2.037-1.094z" class="cls-4" transform="translate(75.913 200.785)"/>
                <path id="Path_242" d="M-1051.872 1199.729a1.08 1.08 0 0 0-1.021 1.9 1.08 1.08 0 0 0 1.021-1.9z" class="cls-4" transform="translate(77.217 188.979)"/>
                <path id="Path_243" d="M-1073.888 1173.254l-.006.014a2.124 2.124 0 0 0-3.165-1.7l.008-.012a2.573 2.573 0 0 0-.471 4.669 2.575 2.575 0 0 0 3.634-2.971z" class="cls-4" transform="translate(63.808 174.038)"/>
                <path id="Path_244" d="M-1096.286 1170.629a1.439 1.439 0 0 0-1.362 2.534 1.439 1.439 0 0 0 1.362-2.534z" class="cls-4" transform="translate(53.475 173.581)"/>
                <path id="Path_245" d="M-1084.937 1158.709a1.556 1.556 0 0 0-2.27 1.412 5.9 5.9 0 0 0 .16 1.171.906.906 0 0 0 1.12.6 5.727 5.727 0 0 0 1.064-.51 1.555 1.555 0 0 0-.074-2.673z" class="cls-4" transform="translate(59.379 167.285)"/>
                <path id="Path_246" d="M-1117.457 1136.882a1 1 0 0 0-.948 1.765 1 1 0 0 0 .948-1.765z" class="cls-4" transform="translate(42.626 155.781)"/>
                <path id="Path_247" d="M-1144.106 1126.258a1.388 1.388 0 0 0-1.314 2.444 1.388 1.388 0 0 0 1.314-2.444z" class="cls-4" transform="translate(28.249 150.142)"/>
                <path id="Path_248" d="M-1121.464 1113.575a3.517 3.517 0 0 0-2.381.983 1.86 1.86 0 0 0 .926 3.083 3.522 3.522 0 0 0 2.53-.5 1.942 1.942 0 0 0-1.075-3.566z" class="cls-4" transform="translate(39.751 143.534)"/>
                <path id="Path_249" d="M-1162.176 1065.059c-.484.937-1.018 1.735-.744 2.811a.908.908 0 0 0 1.12.6c1.047-.367 1.418-1.252 1.932-2.172a1.311 1.311 0 0 0-2.308-1.239z" class="cls-4" transform="translate(19.339 117.546)"/>
                <path id="Path_250" d="M-671.261 1085.827l-.092.13c-.083-.023-.161-.053-.245-.075.113-.015.226-.038.337-.055z" class="cls-3" transform="translate(278.958 128.874)"/>
                <path id="Path_251" d="M-595.2 1322.69c-1.148.277-2.56.361-3.43 1.206a1.087 1.087 0 0 0 .539 1.8c1.2.226 2.415-.483 3.527-.888a1.105 1.105 0 0 0-.636-2.118z" class="cls-4" transform="translate(317.355 253.995)"/>
                <path id="Path_252" d="M-605.244 1263.266l-.766 1.58a1.293 1.293 0 0 0 .037 1.282 1.2 1.2 0 0 0 1.145.616 1.3 1.3 0 0 0 1.09-.679l.894-1.51c.892-1.509-1.633-2.869-2.4-1.289z" class="cls-4" transform="translate(313.529 222.247)"/>
                <path id="Path_253" d="M-603.062 1235.055a1.414 1.414 0 0 0-2.49-1.337l-1.035 1.434c-1.249 1.73 2.146 3.559 2.9 1.559q.314-.828.625-1.656z" class="cls-4" transform="translate(313.16 206.642)"/>
                <path id="Path_254" d="M-599.254 1342.966c-.877.053-1.745.072-2.621.15-3.031.269-1.654 4.915 1.041 3.457.772-.418 1.507-.882 2.267-1.322a1.242 1.242 0 0 0-.687-2.285z" class="cls-4" transform="translate(314.886 264.726)"/>
                <path id="Path_255" d="M-587.974 1283.223c-6.463-3.474-11.872 6.567-5.4 10.046s11.874-6.569 5.4-10.046z" class="cls-4" transform="translate(318.744 232.783)"/>
                <path id="Path_256" d="M-608.31 1321.171a1.774 1.774 0 0 0-3.124-1.678 2.2 2.2 0 0 0-.362.634 1.793 1.793 0 0 0 3.158 1.7 2.219 2.219 0 0 0 .328-.656z" class="cls-4" transform="translate(310.449 251.863)"/>
                <path id="Path_257" d="M-597.712 1307.562a1.234 1.234 0 0 0-1.168 2.172 1.234 1.234 0 0 0 1.168-2.172z" class="cls-4" transform="translate(317.043 245.94)"/>
                <path id="Path_258" d="M-608.567 1277.985a6.681 6.681 0 0 0-2.924-2.3 1.285 1.285 0 0 0-1.215 2.263 6.7 6.7 0 0 0 3.53 1.169.752.752 0 0 0 .609-1.132z" class="cls-4" transform="translate(309.724 229.095)"/>
                <path id="Path_259" d="M-588.154 1267.85l-.058-.044c-3.154-2.389-3.017 4.657.049 2.124l.057-.046a1.44 1.44 0 0 0-.048-2.034z" class="cls-4" transform="translate(321.793 224.753)"/>
                <path id="Path_260" d="M-597.569 1248.212a1.233 1.233 0 0 0-1.166 2.172 1.233 1.233 0 0 0 1.166-2.172z" class="cls-4" transform="translate(317.119 214.584)"/>
                <path id="Path_261" d="M-607.655 1212.34c-.214.243-.269.18-.593.09-.356-.1-.591-.326-1.015-.323-.266 0-.89-.037-.194.076a1.1 1.1 0 0 0-1.3.818 2.076 2.076 0 0 0 2.262 2.505 3.2 3.2 0 0 0 2.942-1.642 1.316 1.316 0 0 0-2.102-1.524z" class="cls-4" transform="translate(311.089 195.495)"/>
            </g>
            <path id="Path_263" d="M-1208.529 1714.5l1630.875-4.6V940.131H-633.921a42.977 42.977 0 0 0 3.532 5.525 13.555 13.555 0 0 0-2.875 3.219 20.438 20.438 0 0 0-3 9.2 29.009 29.009 0 0 0 .321 7.547 29.543 29.543 0 0 0 2.388 7.627 16.872 16.872 0 0 0-2.286 3.615 26.075 26.075 0 0 0-2.329 8.854 47.574 47.574 0 0 0 1.5 15.652 38.211 38.211 0 0 0 3 8.172c-.18.105-.35.209-.512.316a19.849 19.849 0 0 0-4 3.5c-4.479 5.07-7.621 13.086-8.846 22.569-.058.448-.108.9-.149 1.347-1.128 12.122 3.716 23.6 7.976 31.087a37.842 37.842 0 0 0 2.94 4.414 12.181 12.181 0 0 0-1.6 1.587 19.177 19.177 0 0 0-3.986 10.655 29.758 29.758 0 0 0 .611 9.192 25.966 25.966 0 0 0 7.015 12.643 31.171 31.171 0 0 0-2.748 10.408 35.85 35.85 0 0 0 1.365 13.7 21.3 21.3 0 0 0 .812 2.2 1.59 1.59 0 0 1-.752-.549c-.236-.291-.478-.56-.723-.818a15.005 15.005 0 0 0-3.968-5c-6.719-5-15.871-1.913-20.834 7.028a33.16 33.16 0 0 0-3.665 12.89c-.784 8.448.892 17.392 4.377 23.34a26.6 26.6 0 0 0 3.735 4.961c-5.071 3.656-8.038 12.282-8.668 19.08-.02.209-.037.417-.053.623a34.054 34.054 0 0 0 .065 5.725c-6.137-7.99-14.923-11.828-23.814-6.826s-15.13 17.212-15.336 30.557a71.68 71.68 0 0 0 .73 11.19c-4.917 5.776-8.011 14.547-8.129 24.042-.11 8.784 2.305 17.179 7.1 23.079a22.94 22.94 0 0 0 1.726 1.9 40.529 40.529 0 0 0 .144 10.1c.185 1.334.418 2.651.7 3.936-3.233 3.672-5.756 8.665-7.668 13.926a50.911 50.911 0 0 0-2.727 15.624 14.062 14.062 0 0 0-4.028-.429 11.775 11.775 0 0 0-5.719 1.486c-16.377 8.694-12.258 38.368-1.526 51.089a20.9 20.9 0 0 0-4.662 9.229c-4.535 11.419-2.152 28.012 6.4 34.6a14.661 14.661 0 0 0 10.438 3.1 22.768 22.768 0 0 0 1.661 6.517 15.023 15.023 0 0 0-3.609 4.7c-7.831-9.543-19.433-7.016-25.282 5.577-4.622 9.951-2.653 22.771 2.875 31.071a27.3 27.3 0 0 0-.715 8.293c-7.14 1.317-13.642 8.32-16.193 18.882a22.037 22.037 0 0 0-11.939 1.59c-8.328 3.817-13.726 14.711-14.266 28.624a12.1 12.1 0 0 0-4.108-.2c-6.532.809-11.924 6.48-13.736 14.445a25.888 25.888 0 0 0 .012 10.932 21.006 21.006 0 0 0-5 1.856 26.053 26.053 0 0 0-11.4 12.532 19.486 19.486 0 0 0-10.824-.63c-7.209 1.711-13.59 8.51-16.656 17.746-3.5 10.547-.94 23.079 2.627 31.289q.675 1.556 1.414 3.019c-.537.016-1.071.058-1.6.124a9.429 9.429 0 0 0-7.549 5.649 19.429 19.429 0 0 0-1.665 8.181c-.771-10.479-5.618-19.857-12.686-23.659-5.8-3.118-12.576-3.229-19.159-.333a26.2 26.2 0 0 0-4.058-6.379c-7.914-8.976-17.276-4.36-23.735 1.088a31.355 31.355 0 0 0-10.214 28.548c.124.763.268 1.5.427 2.214a21.2 21.2 0 0 0 1.674 5.862c-.478-.351-.983-.7-1.538-1.049-9.89-5.583-21.945.9-25.8 13.862a38.034 38.034 0 0 0-1.271 14.147 13.1 13.1 0 0 0-2.726 1.859 15.814 15.814 0 0 0-2.139-2.534 32.422 32.422 0 0 0 1.9-18.552c-1.349-7.162-5.037-13.248-10.117-16.7-7.485-5.086-16.838-2.1-23.012 7.217a11.523 11.523 0 0 0-4.56-.1c-2.358-10.219-8.765-17.976-16.638-19.984-7.446-1.894-16.824 2.436-22.805 10.536-2.982 4.039-4.4 9.1-5.2 13.035a11.273 11.273 0 0 0-8.714 2.817c-5.356 4.509-8.88 13.445-9.35 22.2-2.055-7.129-6.374-12.713-11.677-14.9a13.4 13.4 0 0 0-4.178-.982q-.2-.5-.431-1c.3-.321.585-.659.871-1l.008-.006c5.42-6.435 9.054-16.043 9.648-25.836.588-9.7-1.807-18.768-6.744-25.522-7.267-9.94-18.424-13.094-27.76-7.839a35.718 35.718 0 0 0-5.364 3.752c-.461.386-.921.779-1.367 1.188a18.414 18.414 0 0 0-19.536-.419c-.424.241-.819.532-1.227.8a34.872 34.872 0 0 0-.874-3.377c-5.584-17.412-19.646-19.249-30.349-13.589-9.747 5.159-14.38 18.427-15.668 30.395h-.005v.053c-.058.547-.119 1.094-.163 1.635-5.549-5.5-11.567-5.938-17.1-1.2a20.253 20.253 0 0 0-2.067 2.066c-3.126-7.81-20.574-13.247-27.228-12.763z" class="cls-4" transform="translate(943.185 -940.131)"/>
            <g id="Group_59" transform="translate(1577.303 -764.13)">
                <path id="Path_37" d="M-1482.851 1249.086s4.038 113-11.417 173.146c-16.59 44.787 0 52.256 0 52.256l-30.38 30.1 102.44 4.876 5.076-54.473s-22.893-11.572-27-85.578-2.351-123.4-2.351-123.4z" class="cls-4" transform="translate(31.687 5.825)"/>
                <g id="Group_49" transform="translate(-1560.863 925.985)">
                    <g id="Group_48">
                        <path id="Path_38" fill="#d14b39" d="M-1304.755 1210.7l-.042-11.743c-.009 0-2.8-13.707-5.286-25.464-1.516-7.17-12.393-16.485-12.5-16.579l-50.4-43.727c-.164-.134-17.624-14.583-20.71-26.309-8-30.392-12.181-71.466-12.356-73.2l-.017-7.558c-.207-5.212-2.84-24.652-3.132-26.4-1.969-11.872-9.332-40.268-13.829-46.4-3.17-4.325-6.534-6.706-9.474-6.706s-6.3 2.381-9.474 6.706c-4.5 6.139-11.86 34.533-13.83 46.4-.325 1.959-3.137 22.8-3.145 26.927v6.909c-.176 1.79-4.308 42.706-12.367 73.325-3.052 11.6-20.027 25.744-20.748 26.341l-50.349 43.684c-.114.1-11 9.435-12.518 16.589-2.225 10.529-4.786 23.066-5.276 25.473l-.034 1.068v10.781l2.31 12.489 82.07 7.7v8.416a.637.637 0 0 0 .636.636h5.135l-.586 2.866a2.4 2.4 0 0 0-.143.769 2.742 2.742 0 0 0 1.289 2.117l.308.224-1.4 10.156.565-.153-.659 1.31a.592.592 0 0 0-.1.279c0 1.6 6.829 2.9 15.223 2.9s15.222-1.3 15.222-2.9c-.009.03-.025-.027-.033-.077l-.178-1.048.065.023-.687-4.974.854.143c.848.142 1.715.26 2.579.349l.534.054.036.535c.692 10.385 1.311 17.635 1.742 20.412 1.133 7.3 2 8.845 2.944 8.911h.062c.948-.067 1.811-1.607 2.945-8.911.432-2.78 1.051-10.03 1.742-20.413l.036-.535.533-.056c.856-.088 1.713-.2 2.55-.341l.856-.143-.639 4.615.048-.031-.249 1.555c.005 1.531 6.834 2.833 15.228 2.833s15.22-1.3 15.22-2.9c-.013.027-.025-.022-.032-.077l-.144-.883.051.008-1.47-10.638.307-.224a2.746 2.746 0 0 0 1.289-2.119l-.016-.167a1.884 1.884 0 0 0-.057-.345l-.537-3.18h4.606a.638.638 0 0 0 .637-.637v-8.319l.576-.054 81.9-7.686z" transform="translate(1560.881 -925.967)"/>
                        <path id="Path_39" d="M-1457.187 1171.426l-5.844.413s-7.077 4.683-9.859 11.908-4.4 37.743-4.4 37.743l11.862-1.941s11.682-33.428 8.241-48.123z" class="cls-4" transform="translate(1563.302 -918.823)"/>
                        <path id="Path_40" d="M-1412.3 1171.236l-8.33.373a38.824 38.824 0 0 0-7.372 11.948c-2.782 7.224 1.493 38.2 1.493 38.2l7.038-.182s10.613-35.644 7.171-50.339z" class="cls-4" transform="translate(1564.713 -918.829)"/>
                        <path id="Rectangle_21" d="M0 0H17.263V175.399H0z" class="cls-4" transform="translate(107.174 72.671)"/>
                        <path id="Path_41" d="M-1467.334 1089.95s-1.851 22.262-9.051 35-50.375 40.348-51.591 69.71c-18.157.9-11.385 25.188-11.385 25.188l-17.271-1.278s-3.837-14.707-1.7-27.628 3.6-24.354 7.326-28.416 68.671-61.665 68.671-61.665 15.574-18.027 15.717-34.562c5.321-10.5 2.72 5.077 2.72 5.077z" class="cls-4" transform="translate(1560.918 -921.997)"/>
                        <path id="Path_42" d="M-1409.149 1062.018l3.77 38.676 7.605 16.142s-12.933 45.57 29.16 78.792c13.1 1.34 28.378-.2 28.378-.2s.821-22.652-12.736-39.422-40.31-35.112-48.125-67.944-8.052-26.044-8.052-26.044z" class="cls-4" transform="translate(1565.29 -922.033)"/>
                        <path id="Path_43" d="M-1437.735 946.851c-2.05-.076-7.225 1.4-7.225 1.4s-10.913 25.089-11.173 50.181c4.163 1.259 16.652-.387 16.652-.387s7.569-50.978 1.746-51.194z" class="cls-4" transform="translate(1563.919 -925.376)"/>
                        <g id="Group_47">
                            <path id="Path_44" d="M-1304.122 1199.888l-.02-.929c-.028-.14-2.849-13.987-5.3-25.581-1.551-7.343-12.266-16.552-12.714-16.932l-50.4-43.724c-.174-.143-17.468-14.425-20.513-25.99-7.944-30.191-12.1-70.751-12.338-73.1v-7.521h-.014c-.206-5.169-2.825-24.585-3.139-26.481-1.979-11.923-9.4-40.471-13.944-46.676-3.293-4.492-6.84-6.966-9.987-6.966s-6.695 2.474-9.987 6.966c-4.55 6.208-11.967 34.755-13.945 46.676-.327 1.971-3.146 22.878-3.154 27.029v6.911c-.14 1.4-4.3 42.595-12.345 73.163-3.04 11.556-20.338 25.847-20.539 26.014l-50.36 43.692c-.455.388-11.17 9.6-12.722 16.94-2.451 11.594-5.271 25.441-5.3 25.581l-.013.825-.012.012v11.034l2.408 13.079 81.971 7.691v7.836a1.272 1.272 0 0 0 1.273 1.273h4.354l-.428 2.1a2.691 2.691 0 0 0-.156.9 3.3 3.3 0 0 0 1.549 2.633l-1.483 10.734.119-.031a1.19 1.19 0 0 0-.184.6c0 2.793 9.968 3.539 15.859 3.539s15.857-.746 15.857-3.539a1.077 1.077 0 0 0-.041-.184l.03.009-.709-5.13c.86.145 1.741.263 2.619.353.631 9.462 1.275 17.417 1.749 20.467 1.205 7.766 2.118 9.348 3.529 9.448v.01c.026 0 .05 0 .075-.005s.051.005.076.005v-.01c1.409-.1 2.323-1.682 3.53-9.448.473-3.053 1.118-11.007 1.748-20.467.868-.091 1.739-.2 2.589-.347l-.708 5.124.032-.02a1.139 1.139 0 0 0-.044.195c0 2.793 9.969 3.539 15.859 3.539s15.858-.746 15.858-3.539a1.067 1.067 0 0 0-.041-.18l.029.005-1.538-11.125a3.3 3.3 0 0 0 1.55-2.633c0-.072-.012-.141-.017-.211a2.575 2.575 0 0 0-.078-.462l-.4-2.382h3.853a1.273 1.273 0 0 0 1.274-1.273v-7.74l82.383-7.73 2.409-13.079V1199.9zm-2.534 8.4h-83.27c-.236-2.538-.523-5.052-.872-7.409h84.141zm-89.849 49.63c-2.167-.638-7.122-1.085-12.894-1.085-5.8 0-10.771.451-12.924 1.093a.93.93 0 0 1-.385-.258c.263-.527 4.611-1.851 13.318-1.851 8.579 0 12.925 1.287 13.3 1.829a1.15 1.15 0 0 1-.415.267zm-46.19 0c-2.168-.637-7.121-1.084-12.892-1.084-5.8 0-10.774.451-12.926 1.093a.938.938 0 0 1-.386-.258c.264-.527 4.61-1.851 13.317-1.851 8.579 0 12.925 1.287 13.3 1.829a1.13 1.13 0 0 1-.413.265zm-13.727-212.581c.1-.035.23-.066.341-.1l.044-.012c4.745-1.392 14.954-1.751 20.33-1.839a.069.069 0 0 1 0 .013q1.261-.018 2.583-.022v42.36c-3.087.015-13.621.145-20.136 1.25l-.037-17.74-.047-23.334c-.76.127-1.42.256-1.971.386l-.047 22.948-.037 18.18a12.881 12.881 0 0 0-1.626.505v-42.336a4.029 4.029 0 0 1 .6-.247zm3.827-52.188c.087-.915.212-1.826.315-2.739a.929.929 0 0 0 .2.041.934.934 0 0 0 .169-.015l6.293-1.126a.958.958 0 0 0 .757-.708l1.737-6.916 4.425-1.291 6.122-.944 6 .917 4.547 1.318.057.225c.02 5.392-.032 10.785-.127 16.177-3.233-.169-6.75-.261-10.391-.261a163.461 163.461 0 0 0-18.076.881c-.934.109-1.766.222-2.514.34.137-1.974.292-3.941.481-5.905zm32.713 5.072q-.1-4.65-.25-9.3a.955.955 0 0 0 .6.39l1.75.313c.049 2.821.084 5.812.111 8.765q-1.072-.097-2.212-.174zm-4.441-22.962l.215-1.036.975.364-1.1 4.478-.833-.241zm7.939 2.8l.246 1.2-3.862 2.641-.168-.667 3.7-3.12zm-9.969-4.448l-4.263-.132v4.346l-.9-.138v-4.9zm-22.406 4.448l.851.717-2.04 9.374-.909.162zm15.128-4.451l-4.636.642.719 4.048-.673.1-.747-3.6-.235-1.13 5.572-.889zm-7.4.62l.165.791-5.157 1.786 2.848 2.917-.543.157-3.823-3.221 2.9-1.082zm11.437 69.159c5.269.079 15.792.421 20.645 1.839l.074.022c.109.033.231.063.333.1v.014a4.06 4.06 0 0 1 .6.245v42.336a16.531 16.531 0 0 0-2.822-.773v-41.094c-1.667-.316-3.962-.618-6.823-.864v41.091q-.875-.073-1.76-.132l-.081-29.828-.031-11.278q-1.443-.1-3.041-.184l-.031 11.462-.08 29.64c-4.02-.19-7.629-.229-9.233-.237v-42.36c.764 0 1.519.006 2.251.016zm37.059 149.29a29.011 29.011 0 0 0-11.172-14.732l-1.69-4.524v-103.269l1.273 20v82.217l1.764 4.454s10.2 5.679 12.359 19.844h24.473s-22.8-23.345-22.8-46.368c0-9.19-.058-25.284-.1-36.173l-1.964-1.779-9.656-16.108-3.947-28.28h.233l4.791 27.643.148.247.009.056 4.31 7.152 5.188 8.653 70.446 63.856 8.933 22.375h-81.344a44.222 44.222 0 0 0-1.26-5.276zm-11.762 60.557q-2.379-.155-4.763-.137c-1.59-.006-3.182.057-4.777.133-1.594.1-3.191.189-4.812.379a24.724 24.724 0 0 1 9.585-1.784 26.5 26.5 0 0 1 4.895.423 14.82 14.82 0 0 1 4.636 1.61 36.214 36.214 0 0 0-4.767-.636zm-34.761-21.4a11.156 11.156 0 0 0-2.952.359 9 9 0 0 0-1.486.527 9.332 9.332 0 0 1 4.368-2.219c.018.428.041.874.064 1.319zm-11.131 21.4q-2.379-.155-4.763-.137c-1.59-.006-3.182.057-4.777.133-1.595.1-3.191.189-4.812.379a24.721 24.721 0 0 1 9.585-1.784 26.5 26.5 0 0 1 4.895.423 14.828 14.828 0 0 1 4.636 1.61 36.231 36.231 0 0 0-4.769-.636zm-14.085-20.92c1.353.119 2.592 2.2 3.611 7.678a12.39 12.39 0 0 0-3.436-.464 12.248 12.248 0 0 0-3.682.534c-.006-3.526 2.109-7.882 3.501-7.762zm-8.56-39.637a43.836 43.836 0 0 0-1.26 5.274h-80.773l8.213-22.376 70.376-63.792 9.706-16.052 4.81-27.761h2.194v105.417l-1.8 4.125a30.253 30.253 0 0 0-11.471 15.153zm29.9-105.4c2.9-.155 6.183-.251 9.814-.262v42.36c-3.072.014-13.525.143-20.047 1.235l-.084-41.057c-.842.138-1.56.28-2.15.423l-.084 41.113a12.307 12.307 0 0 0-1.537.484v-42.338a7.006 7.006 0 0 1 1.481-.5l.1-.025.046-.012a74 74 0 0 1 12.458-1.428zm32.934 1.323c.164.036.323.072.471.108l.077.019a7.045 7.045 0 0 1 1.5.505v42.336a16.462 16.462 0 0 0-2.822-.772v-41.08c-1.667-.316-3.962-.619-6.823-.865v41.076q-.816-.066-1.642-.124l-.111-41.09q-1.548-.111-3.278-.2l-.111 41.088c-3.972-.185-7.526-.225-9.115-.231v-42.361c3.386.009 6.479.093 9.229.229A81.024 81.024 0 0 1-1410 1088.6zm.93 160.382c-2.808.008-5.595.136-8.464.377a16 16 0 0 1 4.143-1.261 25.825 25.825 0 0 1 4.317-.388 22.567 22.567 0 0 1 4.329.39 12.444 12.444 0 0 1 4.085 1.479 46.232 46.232 0 0 0-8.41-.602zm8.97 2.732a46.537 46.537 0 0 0-8.968-.678c-3 .009-5.973.153-9.026.443a17.409 17.409 0 0 1 4.421-1.311 28 28 0 0 1 4.6-.406 24.454 24.454 0 0 1 4.612.407 13.532 13.532 0 0 1 4.361 1.541zm-21.395-19a8.977 8.977 0 0 0-1.486-.527 11.171 11.171 0 0 0-2.9-.357l.07-1.322a9.3 9.3 0 0 1 4.316 2.198zm-4.388-.845a9.449 9.449 0 0 1 4.58 2.273 9.136 9.136 0 0 0-1.487-.527 11.14 11.14 0 0 0-3.083-.365 9.546 9.546 0 0 1 4.76 2.322 9.128 9.128 0 0 0-1.486-.528 11.145 11.145 0 0 0-3.083-.365 9.547 9.547 0 0 1 4.761 2.322 9.021 9.021 0 0 0-1.487-.527 11.112 11.112 0 0 0-3.083-.365 9.544 9.544 0 0 1 4.76 2.321 9.006 9.006 0 0 0-1.486-.527 11.145 11.145 0 0 0-3.083-.365 9.553 9.553 0 0 1 4.761 2.321 9.044 9.044 0 0 0-1.487-.527 11.143 11.143 0 0 0-3.082-.365 9.537 9.537 0 0 1 4.76 2.322 9.01 9.01 0 0 0-1.486-.528 11.143 11.143 0 0 0-3.083-.365 9.546 9.546 0 0 1 4.761 2.322 9.114 9.114 0 0 0-1.487-.528 11.131 11.131 0 0 0-3.082-.365 9.338 9.338 0 0 1 5.018 2.557 25.774 25.774 0 0 0-6.787-1.584c.215-3.657.422-7.349.611-10.937zm20.369 15.137c-1.185-.058-2.367-.078-3.558-.074-2.619.005-5.217.116-7.9.309a14.5 14.5 0 0 1 3.865-1.209 23.439 23.439 0 0 1 4.034-.372c.572 0 1.145.033 1.718.074a5.676 5.676 0 0 0 1.842 1.266zm-1.224-13.395c.178.045.356.1.533.158l-.171.838c-.908-.006-1.8 0-2.707 0-1.486-.005-2.943 0-4.532-.094a6.493 6.493 0 0 1 2.192-.9 10.765 10.765 0 0 1 2.336-.276 9.71 9.71 0 0 1 2.35.263zm-4.966 2.07a12.742 12.742 0 0 1 2.619-.291 11.671 11.671 0 0 1 2.495.269l-.206 1.01c-.763-.01-1.517-.011-2.285-.006-1.675 0-3.323.023-5.094-.028a7.686 7.686 0 0 1 2.475-.962zm-.281 2.071a14.693 14.693 0 0 1 2.9-.308 14.868 14.868 0 0 1 2.093.175l-.227 1.113c-.62-.008-1.237-.019-1.863-.016l-5.656.04a8.986 8.986 0 0 1 2.754-1.012zm-.282 2.07a16.885 16.885 0 0 1 3.185-.324c.564.005 1.128.034 1.69.089l-.242 1.187q-.719-.006-1.444 0c-2.053 0-4.08.061-6.219.107a10.3 10.3 0 0 1 3.031-1.067zm-.281 2.07a19.021 19.021 0 0 1 3.469-.34c.425 0 .851.031 1.276.059l-.246 1.207v.011c-.341 0-.681-.006-1.023-.005-2.243 0-4.46.079-6.78.175a11.7 11.7 0 0 1 3.305-1.116zm-.282 2.071a21.2 21.2 0 0 1 3.753-.357c.292 0 .584.028.877.039 0 .024-.006.047-.006.071a2.715 2.715 0 0 0 .274 1.17c-.38 0-.76-.008-1.142-.007-2.43 0-4.837.1-7.341.242a13.06 13.06 0 0 1 3.586-1.167zm7.908-3.779l1.546-7.7a3.878 3.878 0 0 1 2.709-.026c-.3.026-.594.057-.884.1a11.317 11.317 0 0 1 1.5.337 2.372 2.372 0 0 1 .513.771 11.831 11.831 0 0 0-1.95.138 10.489 10.489 0 0 1 2.2.57c.056.177.11.361.165.555a11.173 11.173 0 0 0-2.305.121 9.915 9.915 0 0 1 2.52.709l.106.443a10.734 10.734 0 0 0-2.566.095 9.6 9.6 0 0 1 2.764.814c.026.122.049.241.073.36a10.45 10.45 0 0 0-2.778.072 9.309 9.309 0 0 1 2.969.914l.051.28a10.183 10.183 0 0 0-2.961.054 8.989 8.989 0 0 1 3.136 1.019 12.927 12.927 0 0 0-2.754-.287 11.909 11.909 0 0 0-4.053.652zm-19.365-9.635a11.031 11.031 0 0 0-1.521-.134l.064-1.266a11.03 11.03 0 0 1 1.414.468l.044.923zm-1.449-1.55l.054-1.075c.331.113.807.282 1.3.479l.033.741a11.069 11.069 0 0 0-1.386-.154zm-31.29-56.623v-39.5a4.229 4.229 0 0 1 .6-.248l.024-.006c.232-.078.5-.156.817-.236a72.964 72.964 0 0 1 12.787-1.477l.62-.031.448-.02c2.594-.12 5.467-.193 8.6-.2v41.722zm24.129 2.547l-.032 2.068h-1.105l.175-2.068zm-3.518 0l-.175 2.068h-1l.288-2.068zm7.307 2.068l.032-2.068h1.522v2.068zm-2.744-4.615v-41.722c3.051.008 5.852.078 8.389.193l.436.019.287.013a81.08 81.08 0 0 1 12.8 1.375c.127.028.25.056.366.084l.158.041q.491.124.85.245h.016a4.058 4.058 0 0 1 .6.245v39.5zm-25.615 2.547h.381l-.529 2.068h-.753zm3.009 0h.653l-.288 2.068h-.893zm1.939 0h13.93l-.288 2.068h-13.93zm-7.058 72.133a5.92 5.92 0 0 0 1.829-1.194 25.55 25.55 0 0 1 2.78-.2 20.646 20.646 0 0 1 4.046.375 11.363 11.363 0 0 1 3.809 1.412 46.153 46.153 0 0 0-7.85-.514c-1.537-.008-3.07.042-4.612.112zm11.9-1.744a46.668 46.668 0 0 0-7.293-.432c-.7 0-1.395.025-2.091.039a2.726 2.726 0 0 0 .288-1.2v-.02q.9-.077 1.8-.09a18.726 18.726 0 0 1 3.763.358 10.331 10.331 0 0 1 3.538 1.333zm-9.222-2.456l-.2-1.158c.7-.08 1.41-.135 2.12-.145a16.939 16.939 0 0 1 3.48.34 9.3 9.3 0 0 1 3.258 1.282 48.048 48.048 0 0 0-6.735-.351c-.634-.007-1.276.01-1.918.023zm1.927-2.084c-.759 0-1.515.013-2.273.027l-.182-1.086a18.04 18.04 0 0 1 2.452-.214 15.014 15.014 0 0 1 3.2.325 8.268 8.268 0 0 1 2.984 1.216 50.759 50.759 0 0 0-6.177-.277zm0-2.054l-2.618.019-.169-1a14.939 14.939 0 0 1 2.783-.288 13.2 13.2 0 0 1 2.915.308 7.3 7.3 0 0 1 2.708 1.152c-1.947-.193-3.747-.209-5.617-.201zm0-2.053h-2.965l-.144-.857c.162-.044.324-.087.487-.123a12.735 12.735 0 0 1 2.619-.291 11.424 11.424 0 0 1 2.63.292 6.3 6.3 0 0 1 2.432 1.086c-1.764-.125-3.38-.127-5.059-.117zm0-2.054c-1.095 0-2.19-.013-3.318-.05l-.1-.615a8.315 8.315 0 0 1 1.08-.332 10.749 10.749 0 0 1 2.336-.276 9.645 9.645 0 0 1 2.348.277 5.36 5.36 0 0 1 2.157 1.02c-1.59-.058-3.013-.044-4.504-.035zm-9.306-6.412a5.667 5.667 0 0 1 4.844 1.717 15.568 15.568 0 0 0-4.67-.646 17.456 17.456 0 0 0-3.481.342 4.252 4.252 0 0 1 3.306-1.423zm9.317 20.788c-2.808.008-5.6.136-8.465.377a16.005 16.005 0 0 1 4.145-1.261 25.826 25.826 0 0 1 4.317-.388 22.575 22.575 0 0 1 4.329.39 12.433 12.433 0 0 1 4.084 1.479 46.223 46.223 0 0 0-8.41-.607zm4.61 1.189a13.523 13.523 0 0 1 4.36 1.544 46.521 46.521 0 0 0-8.967-.678c-3 .009-5.974.153-9.027.443a17.435 17.435 0 0 1 4.422-1.311 27.993 27.993 0 0 1 4.6-.406 24.454 24.454 0 0 1 4.611.398zm11.214-19.762a11.072 11.072 0 0 0-1.962.209l.04-.842a10.89 10.89 0 0 1 1.857-.644zm-.072-1.416a11.094 11.094 0 0 0-1.823.22l.022-.5c.58-.271 1.251-.525 1.752-.7l.048.97zm38.34.272a15.519 15.519 0 0 0-4.7.657c.63-.657 3.516-3.226 7.793-.434v.041a18.037 18.037 0 0 0-3.094-.275zm-8.542-52.278l-.329-2.068h2.182l.773 2.068zm-66.043 31.3h-82.861v-7.409h83.733c-.351 2.347-.638 4.862-.873 7.4zm1.516 19.178c.172-7.362.862-25.666 3.526-34.023a25.326 25.326 0 0 1 10.641-13.909h10.783a52.669 52.669 0 0 1 5.632 18.653c.8 7.3.146 23.474-.182 30.281-3.248-1.89-9.326-2.921-15.126-3.1a47.085 47.085 0 0 0-11.989.983 16.061 16.061 0 0 0-3.287 1.105zm28.632 16.93a9.33 9.33 0 0 1 5.039-2.576 11.134 11.134 0 0 0-3.083.365 9.121 9.121 0 0 0-1.487.528 9.55 9.55 0 0 1 4.761-2.322 11.141 11.141 0 0 0-3.083.365 9.007 9.007 0 0 0-1.486.528 9.538 9.538 0 0 1 4.76-2.322 11.145 11.145 0 0 0-3.083.365 8.988 8.988 0 0 0-1.486.527 9.544 9.544 0 0 1 4.76-2.321 11.144 11.144 0 0 0-3.083.365 9 9 0 0 0-1.486.527 9.553 9.553 0 0 1 4.76-2.322 11.146 11.146 0 0 0-3.083.366 9.019 9.019 0 0 0-1.487.527 9.55 9.55 0 0 1 4.761-2.322 11.145 11.145 0 0 0-3.083.365 9.018 9.018 0 0 0-1.486.528 9.546 9.546 0 0 1 4.76-2.322 11.138 11.138 0 0 0-3.082.365 9.029 9.029 0 0 0-1.487.528 9.471 9.471 0 0 1 4.631-2.288c.188 3.589.4 7.283.612 10.934a25.61 25.61 0 0 0-6.861 1.603zm38.593-19.032c-5.8.182-11.878 1.214-15.126 3.1-.328-6.806-.982-22.984-.183-30.281a52.874 52.874 0 0 1 5.634-18.653h10.881a25.213 25.213 0 0 1 10.541 13.909c2.665 8.356 3.354 26.661 3.527 34.023a15.987 15.987 0 0 0-3.284-1.119 47.1 47.1 0 0 0-11.991-.988zm11.189-137.978c3.25 12.352 20.622 26.7 21.333 27.287l50.376 43.707c.1.09 10.51 9.033 11.883 15.529 1.971 9.323 4.182 20.109 4.985 24.035h-.712c-1.014-3.916-4.575-17.68-5.933-23.025-1.591-6.26-9.231-13.157-9.231-13.157s-50.932-44.248-56.249-48.853a71.4 71.4 0 0 1-9.406-10.142s-7.613-7.746-9.552-17.238c-1.919-9.4-5.61-29.476-7.371-39.12v-11.693c2.057 14.992 5.354 35.48 9.876 52.661zm-12.423-43.089a16.443 16.443 0 0 0-2.822-.773V1016.3c0-4.662-.116-9.091-.324-13.286-1.645-.3-3.843-.578-6.543-.809.06 8.855.044 16.427.044 16.427v24.019q-.933-.077-1.878-.14l-.04-14.808-.039-14.312c.027-2.386-.167-4.771-.185-7.157l-.074-4.2c-.754-.051-1.533-.1-2.35-.143l-.075 4.339c-.019 2.386-.212 4.771-.185 7.156l-.039 14.313-.039 14.635c-4.067-.194-7.732-.234-9.351-.242v-41.725c.765 0 1.517.007 2.251.017l1.409.027c1.248.025 2.45.06 3.6.1 5.578.207 12.573.693 16.047 1.827v.086a1.613 1.613 0 0 1 .3.172c.181 1.843.294 3.3.294 4.074zm-11.652-82.535c-.695-.172-1.427-.322-2.176-.463a169.265 169.265 0 0 0-2.912-19.26 168.4 168.4 0 0 1 2.138 19.121 60.546 60.546 0 0 0-9.936-.792c-6.92 0-13.875 1.087-17.824 3.182a221.856 221.856 0 0 1 7.009-23.1c.378-.584 2.119-1.493 5.085-2.055v3.984c0 1.975 1.2 2.188 1.711 2.188h8.037c.516 0 1.712-.213 1.712-2.188v-3.984c2.966.562 4.708 1.471 5.086 2.055a222.173 222.173 0 0 1 7.007 23.1 17.3 17.3 0 0 0-2.342-1.012 73.517 73.517 0 0 0-4.326-12.366s.861 4.48 1.73 11.581zm-17.343-23.567a32.555 32.555 0 0 1 4.457-.294 32.415 32.415 0 0 1 4.456.294v4.189c0 .915-.274.915-.437.915h-8.038c-.164 0-.438 0-.438-.915zm4.457-9.659c.055 0 .113.017.169.02-3.147 1.1-6.362 5.713-7.572 7.6a18.448 18.448 0 0 0-1.8.525 15.021 15.021 0 0 1 1.272-2.223c2.757-3.771 5.648-5.931 7.93-5.931zm-21.42 51.512c.572-3.45 1.5-7.841 2.621-12.538.228-1.61 6.989-4.594 18.8-4.594a60.342 60.342 0 0 1 7.765.479v-.023c4.795.628 8.12 1.769 9.787 2.816l.016.01c.029.017.066.036.094.055l.011.018c.695.451 1.072.88 1.123 1.242 1.122 4.7 2.047 9.087 2.62 12.536.243 1.471 1.689 12.161 2.524 19.7a24.113 24.113 0 0 0-2.777-.61q-.33-5.047-.823-9.6a.918.918 0 0 0 .009-.238l-.071-.351a183.415 183.415 0 0 0-3.747-22.249 21.847 21.847 0 0 0-3.211-1.121c.285 2.673.554 5.606.776 8.734l-2.448-.913c-.06-.988-.109-1.976-.176-2.964q-.187-2.7-.42-5.394c-.3-.061-.606-.119-.92-.176q.13 2.813.217 5.625c.024.813.031 1.627.05 2.441l-2.651-.989a.873.873 0 0 0-.184-.048l-7.4-1.181a.93.93 0 0 0-.256.016.94.94 0 0 0-.253-.016l-7.4 1.181a.871.871 0 0 0-.184.048l-9.3 3.472a.93.93 0 0 0-.27.19c.49-2.5 1.01-4.987 1.58-7.469q-1.95 7.484-3.37 15.106l-1.239 6.057a.931.931 0 0 0 .136.659c-.149 1.034-.319 2.066-.448 3.1q-.391 3.061-.68 6.135a22.784 22.784 0 0 0-2.429.553c.833-7.546 2.283-18.237 2.526-19.707zm-2.825 22.56a1.742 1.742 0 0 1 .313-.175v-.085c3.467-1.13 10.428-1.615 16-1.823q1.683-.066 3.509-.1c.423-.009.83-.018 1.209-.024q1.261-.019 2.583-.023v41.718c-3.1.013-13.717.145-20.226 1.266l-.028-12.215c-.122-4.231-.167-8.469-.209-12.694q-.071-7.773.3-15.54c-.366.06-.714.121-1.033.182q-.589 7.663-.732 15.351c-.086 4.239-.1 8.467-.232 12.7l-.028 12.618a13.154 13.154 0 0 0-1.716.527v-37.615c-.005-.78.107-2.234.289-4.08zm-96.316 171.3c1.373-6.5 11.78-15.44 11.892-15.538l50.34-43.675c.738-.606 18.111-14.958 21.362-27.31 1.128-4.291 2.181-8.788 3.156-13.355-.3 4.381-1.133 11.813-3.433 18.017-3.5 9.444-13.476 18.118-13.476 18.118l-57.192 50.429s-8.914 7.64-10.823 12.1c-1.621 3.78-4.92 20.32-5.884 25.253h-.926c.802-3.938 3.012-14.724 4.983-24.051zm-5.01 36.926h82.381c-.613 7.664-.793 15.056-.844 18.207l-79.746-7.481zm84.12 19.691c.255-.467 1.537-1.125 3.783-1.669v9.311h-3.783zm36.457-23.677c0-14.76 3.322-22.461 5.016-25.428 1.125 1.953 2.954 5.99 4.061 12.812a45.165 45.165 0 0 0-3.993-8.7 58.307 58.307 0 0 1 1.4 12.627v47.919s0 23.636-2.065 29.59c-.154-.817-.32-1.769-.495-2.9-1.313-8.422-3.926-54.439-3.926-65.928zm42.25 31.261v-9.256c2.231.54 3.512 1.193 3.782 1.66v7.6zm86.523-16.549l-80.151 7.519c-.051-3.131-.23-10.552-.845-18.245h82.788z" class="cls-3" transform="translate(1560.863 -925.985)"/>
                            <path id="Path_45" d="M-1421.655 1164.974h6.822v-37.48c-1.667-.316-3.961-.619-6.822-.865z" class="cls-3" transform="translate(1564.925 -920.13)"/>
                            <path id="Path_46" d="M-1408.466 1176.1c4.509 21.5-2.85 40.43-2.85 40.43 9.425-.3 13.613 1.687 13.613 1.687-.644-34.11-6.197-39.406-10.763-42.117z" class="cls-3" transform="translate(1565.227 -918.687)"/>
                            <path id="Path_47" d="M-1447.962 1218.576c2.238-33.219-2.214-39.3-6.221-43.168 2.142 22.336-7.565 40.688-7.565 40.688 9.677.792 13.786 2.48 13.786 2.48z" class="cls-3" transform="translate(1563.755 -918.707)"/>
                            <path id="Path_48" d="M-1426.76 1164.984h3.723l-.1-38.475q-1.652-.12-3.515-.212z" class="cls-3" transform="translate(1564.776 -920.14)"/>
                            <path id="Path_49" d="M-1458.555 1164.955h2.482l-.077-37.662c-.924.15-1.7.3-2.329.459z" class="cls-3" transform="translate(1563.848 -920.111)"/>
                            <path id="Path_50" d="M-1393.959 1194.367s.339 2.379.5 4.76h27.729a11.373 11.373 0 0 0-.684-3.4h42.819c3.277-.215 6.555-.379 9.832-.637-3.277-.258-6.555-.422-9.832-.637h-43.366c-.015-.03-.027-.06-.042-.091z" class="cls-3" transform="translate(1565.733 -918.154)"/>
                            <path id="Path_51" d="M-1393.366 1203.711s.982 10.43.982 15.518l26.42-2.388a40.474 40.474 0 0 0 .92-11.194h40.1c3.211-.322 6.422-.568 9.633-.955-3.211-.387-6.422-.633-9.633-.955h-40.3v-.026h-17.494a42.686 42.686 0 0 0-4.454 0z" class="cls-3" transform="translate(1565.75 -917.883)"/>
                            <path id="Path_52" d="M-1489.48 1192.011h12.187c2.16-14.166 12.357-19.845 12.357-19.845l1.765-4.454v-82.217s-4.868 91.267-26.309 106.516z" class="cls-3" transform="translate(1562.946 -921.33)"/>
                            <path id="Path_53" d="M-1484.747 1194.367c.009.011.013.026.023.037-.9 0-1.8.01-2.693.035l-9.832.019h-49.157c-3.278.215-6.555.379-9.832.637 3.277.258 6.554.422 9.832.637h49.157l9.832.019c1.023.029 2.047.036 3.07.027a6.107 6.107 0 0 1-1.674 3.35h9.253c.166-2.381.5-4.76.5-4.76z" class="cls-3" transform="translate(1560.998 -918.154)"/>
                            <path id="Path_54" d="M-1482.86 1203.711a42.711 42.711 0 0 0-4.455 0c-3.21.058-6.421.016-9.632.029h-48.162c-3.21.322-6.421.568-9.632.955 3.211.387 6.422.633 9.632.955h48.162c3.211.013 6.422-.029 9.632.029.791.034 1.583.057 2.373.06 2.641 6.213-2.05 12.671-2.05 12.671l9.094.822c0-5.088.982-15.518.982-15.518z" class="cls-3" transform="translate(1561.042 -917.883)"/>
                            <path id="Path_55" d="M-1355 1174.371a4.447 4.447 0 0 0-4.447 4.446 4.447 4.447 0 0 0 4.447 4.446 4.446 4.446 0 0 0 4.446-4.446 4.446 4.446 0 0 0-4.446-4.446zm1.692 6.747l-1.692-.889-1.693.89.323-1.885-1.369-1.335 1.891-.275.847-1.715.846 1.715 1.893.275-1.37 1.335z" class="cls-3" transform="translate(1566.74 -918.737)"/>
                            <path id="Path_56" d="M-1333.1 1174.637h-15.246a.76.76 0 0 0-.759.759v6.776a.76.76 0 0 0 .759.758h15.246a.761.761 0 0 0 .759-.758v-6.772a.761.761 0 0 0-.759-.763z" class="cls-3" transform="translate(1567.042 -918.729)"/>
                            <path id="Path_57" d="M-1532.113 1174.371a4.446 4.446 0 0 0-4.446 4.446 4.446 4.446 0 0 0 4.446 4.446 4.446 4.446 0 0 0 4.446-4.446 4.446 4.446 0 0 0-4.446-4.446zm1.693 6.748l-1.693-.89-1.693.89.323-1.885-1.369-1.335 1.893-.275.846-1.715.846 1.715 1.893.275-1.369 1.335z" class="cls-3" transform="translate(1561.572 -918.737)"/>
                            <path id="Path_58" d="M-1510.214 1174.637h-15.246a.761.761 0 0 0-.758.759v6.776a.761.761 0 0 0 .758.758h15.246a.76.76 0 0 0 .759-.758v-6.772a.76.76 0 0 0-.759-.763z" class="cls-3" transform="translate(1561.874 -918.729)"/>
                            <path id="Path_59" d="M-1440.586 994.261h3.623c.1 0 .18-.163.18-.362v-3.234c0-.2-.08-.361-.18-.361h-3.623c-.1 0-.18.163-.18.361v3.235c0 .2.081.361.18.361z" class="cls-3" transform="translate(1564.368 -924.108)"/>
                            <path id="Path_60" d="M-1435.177 994.261h3.623c.1 0 .18-.163.18-.362v-3.234c0-.2-.081-.361-.18-.361h-3.623c-.1 0-.18.163-.18.361v3.235c0 .2.081.361.18.361z" class="cls-3" transform="translate(1564.525 -924.108)"/>
                            <path id="Path_61" d="M-1424.1 1218.59a23.019 23.019 0 0 1 2.281-.911s-3.018-30.082 3.2-42.761c.002 0-8.192 7.268-5.481 43.672z" class="cls-3" transform="translate(1564.837 -918.721)"/>
                            <path id="Path_62" d="M-1463.229 1175.408c-2.918 2.1-10.769 7.135-11.379 42.423 1.016-.4 2.678-.855 2.678-.855s-.91-31.093 8.701-41.568z" class="cls-3" transform="translate(1563.38 -918.707)"/>
                        </g>
                    </g>
                </g>
                <path id="Path_6117" d="M-1432.486 1287.646c2.289 112.024 5.129 129.831 12.038 136.926" class="cls-6" transform="translate(2.895 0)"/>
                <path id="Path_6118" d="M-1432.486 1287.646c2.289 124.919 5.1 222.568 16.679 227.65" class="cls-6" transform="translate(-0.82 0)"/>
                <path id="Path_6119" d="M-1420.448 1287.646c-2.289 112.024 3.8 168.879-4.168 180.579" class="cls-6" transform="translate(-15.859 0)"/>
            </g>
            <g id="Group_64" transform="translate(-2086.498 -1046.6)">
                <g id="Group_61" transform="translate(2190.95 1097.583)">
                    <path id="Path_264" d="M2235.536 1097.909v53.291h-8.936v-19.421l-8.931-17.031v36.452h-8.932v-53.286h8.932l8.931 17.032v-17.032z" class="cls-4" transform="translate(-2208.743 -1097.88)"/>
                    <path id="Path_265" d="M2288.16 1151.2h-27.727v-53.287h27.727l-3.081 8.271h-15.715v13.623h8.931v8.256h-8.931v14.865h15.715z" class="cls-4" transform="translate(-2223.553 -1097.882)"/>
                    <path id="Path_266" d="M2336.81 1151.2h-27.727v-53.287h27.727l-3.081 8.271h-15.715v13.623h8.931v8.256h-8.931v14.865h15.715z" class="cls-4" transform="translate(-2237.492 -1097.882)"/>
                    <path id="Path_267" d="M2388.3 1124.512a38.226 38.226 0 0 1-4.372 18.372 24.546 24.546 0 0 1-2.314 3.458 12.98 12.98 0 0 1-10.115 4.814h-13.77v-53.286h13.77a12.982 12.982 0 0 1 10.116 4.814 24.539 24.539 0 0 1 2.314 3.457 38.221 38.221 0 0 1 4.371 18.371zm-8.272 0c0-5.462-1.356-10.692-3.721-14.347-1.63-2.519-3.589-4.025-5.24-4.025h-4.406v36.744h4.406c1.651 0 3.61-1.505 5.24-4.024 2.367-3.66 3.724-8.887 3.724-14.348z" class="cls-4" transform="translate(-2251.431 -1097.869)"/>
                </g>
                <g id="Group_62" transform="translate(2146.642 1096.871)">
                    <path id="Path_268" d="M2147.387 1152.884h9.442a7.184 7.184 0 0 1 5.33 2.333 7.8 7.8 0 0 1 1.584 2.636h13.293v4.969h-13.293a7.8 7.8 0 0 1-1.584 2.635 7.182 7.182 0 0 1-5.331 2.334h-9.442v-4.969h9.774a2.24 2.24 0 0 0 1.567-.622 2.484 2.484 0 0 0 0-3.724 2.24 2.24 0 0 0-1.567-.622h-9.774z" class="cls-7" transform="translate(-2146.855 -1112.92)"/>
                    <path id="Path_269" d="M2148.74 1127.873a7.14 7.14 0 0 1 5.222-2.241h16.161a7.15 7.15 0 0 1 6.63 4.386l.073.183a8.076 8.076 0 0 1 0 5.771l-.073.183a7.15 7.15 0 0 1-6.63 4.386h-16.161a7.142 7.142 0 0 1-5.223-2.241 7.858 7.858 0 0 1-1.563-2.446 7.444 7.444 0 0 1 0-5.534 7.852 7.852 0 0 1 1.564-2.447zm23.485 4a2.265 2.265 0 0 0-2.045-1.271h-16.243a2.24 2.24 0 0 0-1.567.622 2.482 2.482 0 0 0 0 3.724 2.243 2.243 0 0 0 1.567.622h16.243a2.265 2.265 0 0 0 2.046-1.272 2.758 2.758 0 0 0 0-2.426z" class="cls-7" transform="translate(-2146.642 -1105.112)"/>
                    <path id="Path_270" d="M2147.39 1096.871h22.947a7.149 7.149 0 0 1 6.63 4.386l.073.183a8.073 8.073 0 0 1 0 5.771l-.073.183a7.15 7.15 0 0 1-6.63 4.386h-22.947v-4.97h23a2.265 2.265 0 0 0 2.046-1.272 2.759 2.759 0 0 0 0-2.425 2.265 2.265 0 0 0-2.046-1.271h-23z" class="cls-7" transform="translate(-2146.856 -1096.871)"/>
                </g>
                <g id="Group_63" transform="translate(2147.294 1159.127)">
                    <path id="Path_271" d="M2173.3 1191.733v23.667h-5.148v-23.716a2.322 2.322 0 0 0-.645-1.622 2.571 2.571 0 0 0-3.859 0 2.321 2.321 0 0 0-.644 1.622v23.726h-5.149v-23.716a2.326 2.326 0 0 0-.644-1.623 2.573 2.573 0 0 0-3.86 0 2.327 2.327 0 0 0-.644 1.623v23.716h-5.149v-23.668a7.425 7.425 0 0 1 2.338-5.446 8.147 8.147 0 0 1 2.518-1.606 7.713 7.713 0 0 1 5.735 0 2.564 2.564 0 0 0 4.563-.01 7.721 7.721 0 0 1 5.734 0 8.167 8.167 0 0 1 2.519 1.607 7.427 7.427 0 0 1 2.335 5.446z" class="cls-7" transform="translate(-2147.556 -1184.128)"/>
                    <path id="Path_272" d="M2202.375 1186.315a7.4 7.4 0 0 1 2.322 5.41v16.744a7.409 7.409 0 0 1-4.545 6.87l-.189.075a8.378 8.378 0 0 1-5.979 0l-.189-.075a7.409 7.409 0 0 1-4.545-6.87v-16.744a7.4 7.4 0 0 1 2.322-5.411 8.174 8.174 0 0 1 2.534-1.62 7.713 7.713 0 0 1 5.735 0 8.159 8.159 0 0 1 2.534 1.621zm-4.145 24.333a2.349 2.349 0 0 0 1.317-2.12V1191.7a2.327 2.327 0 0 0-.645-1.623 2.573 2.573 0 0 0-3.86 0 2.326 2.326 0 0 0-.644 1.623v16.83a2.346 2.346 0 0 0 1.319 2.12 2.864 2.864 0 0 0 2.513 0z" class="cls-7" transform="translate(-2159.502 -1184.132)"/>
                    <path id="Path_273" d="M2227.9 1203.267l4.606 12.366h-5.079l-3.46-9.292-2.277 1.778v7.514h-5.148v-30.72h7.967a7.837 7.837 0 0 1 7.162 4.585l.081.184a11.337 11.337 0 0 1 .847 3.382q.055.574.055 1.168a10.633 10.633 0 0 1-3.044 7.7l-1.355 1.058zm-1.885-5.061l.184-.143a4.3 4.3 0 0 0 .639-.928 6.665 6.665 0 0 0 0-5.806l-.012-.024a3.06 3.06 0 0 0-2.712-1.623h-2.424v11.9l.39-.305 3.284-2.565z" class="cls-7" transform="translate(-2167.323 -1184.353)"/>
                    <path id="Path_274" d="M2259.512 1215.636h-15.984v-30.72h15.984l-1.776 4.769h-9.06v7.853h5.149v4.76h-5.149v8.57h9.06z" class="cls-7" transform="translate(-2175.054 -1184.354)"/>
                    <path id="Path_275" d="M2308.336 1191.733v23.667h-5.149v-23.716a2.321 2.321 0 0 0-.645-1.622 2.571 2.571 0 0 0-3.859 0 2.321 2.321 0 0 0-.644 1.622v23.726h-5.149v-23.716a2.324 2.324 0 0 0-.644-1.623 2.574 2.574 0 0 0-3.86 0 2.328 2.328 0 0 0-.644 1.623v23.716h-5.148v-23.668a7.424 7.424 0 0 1 2.337-5.446 8.148 8.148 0 0 1 2.518-1.606 7.713 7.713 0 0 1 5.735 0 2.564 2.564 0 0 0 4.563-.01 7.722 7.722 0 0 1 5.735 0 8.158 8.158 0 0 1 2.519 1.607 7.427 7.427 0 0 1 2.335 5.446z" class="cls-7" transform="translate(-2186.247 -1184.128)"/>
                    <path id="Path_276" d="M2337.4 1186.3a7.427 7.427 0 0 1 2.337 5.445v23.668h-5.149v-11.536l-5.149 4.023v7.514h-5.148v-23.668a7.424 7.424 0 0 1 2.337-5.446 8.145 8.145 0 0 1 2.519-1.606 7.711 7.711 0 0 1 5.734 0 8.151 8.151 0 0 1 2.519 1.606zm-2.812 5.4a2.324 2.324 0 0 0-.644-1.623 2.573 2.573 0 0 0-3.859 0 2.325 2.325 0 0 0-.645 1.623v9.667l5.149-4.021z" class="cls-7" transform="translate(-2198.193 -1184.132)"/>
                    <path id="Path_277" d="M2362.941 1203.267l4.606 12.366h-5.08l-3.46-9.292-2.276 1.778v7.514h-5.149v-30.72h7.967a7.837 7.837 0 0 1 7.162 4.585l.081.184a11.359 11.359 0 0 1 .847 3.382q.054.574.054 1.168a10.629 10.629 0 0 1-3.044 7.7l-1.355 1.058zm-1.885-5.061l.183-.143a4.33 4.33 0 0 0 .64-.928 6.676 6.676 0 0 0 0-5.806l-.013-.024a3.06 3.06 0 0 0-2.713-1.623h-2.423v11.9l.389-.305 3.284-2.565z" class="cls-7" transform="translate(-2206.013 -1184.353)"/>
                    <path id="Path_278" d="M2394.01 1203.985v5.311a5.843 5.843 0 0 1-1.7 4.14l-.021.021c-.152.15-.31.3-.472.434a8.666 8.666 0 0 1-2.543 1.523 8.38 8.38 0 0 1-5.98 0 8.727 8.727 0 0 1-3.049-1.992 5.828 5.828 0 0 1-1.685-4.126l5.148-4.022v3.529a1.846 1.846 0 0 0 .681 1.442 3.291 3.291 0 0 0 .632.4 2.858 2.858 0 0 0 2.522 0l.071-.036a3.292 3.292 0 0 0 .562-.365 1.824 1.824 0 0 0 .681-1.421v-4.6a1.856 1.856 0 0 0-.693-1.453 3.081 3.081 0 0 0-1.451-.652 2.955 2.955 0 0 0-.43-.032 7.745 7.745 0 0 1-2.574-.442 8.1 8.1 0 0 1-2.692-1.608q-.246-.219-.475-.459a8.947 8.947 0 0 1-1.075-1.37 5.789 5.789 0 0 1-.44-.839 5.9 5.9 0 0 1-.467-2.3v-3.315a7.646 7.646 0 0 1 .126-1.384 7.364 7.364 0 0 1 2.211-4.063q.219-.2.451-.39a8.061 8.061 0 0 1 2.067-1.216 7.711 7.711 0 0 1 5.734 0 8.438 8.438 0 0 1 3.964 3.352 5.752 5.752 0 0 1 .773 1.932l-5.03 3.93v-2.214a2.327 2.327 0 0 0-.644-1.623 2.69 2.69 0 0 0-1.93-.871 2.417 2.417 0 0 0-.614.08 2.845 2.845 0 0 0-1.316.791 2.327 2.327 0 0 0-.644 1.623v2.934a2.7 2.7 0 0 0 1.266 2.309c.072.043.146.084.222.121a2.474 2.474 0 0 0 1.086.253 8.265 8.265 0 0 1 1.47.132 8.121 8.121 0 0 1 1.1.275 8.5 8.5 0 0 1 2.142 1.045l.071.048a8.8 8.8 0 0 1 .838.655c.039.034.078.069.116.1.1.094.2.19.3.288a5.721 5.721 0 0 1 1.371 2.227 5.972 5.972 0 0 1 .32 1.898z" class="cls-7" transform="translate(-2213.744 -1184.132)"/>
                </g>
            </g>
            <g id="Group_166" transform="matrix(0.616, -0.788, 0.788, 0.616, -2816.624, 607.953)">
                <path id="Path_6075" d="M2217.048 1888.151c2.7 2.182 3.742 3.643 3.447 4.3-.336.743-2.8.425-6.327-.672a9.346 9.346 0 1 0-16.623-7.522c-3.154-1.928-5.016-3.567-4.68-4.31.3-.652 1.825-.86 5.5-.245-5.353-1.8-9.188-2.42-9.667-1.362-.733 1.619 6.676 6.554 16.549 11.022s18.47 6.777 19.2 5.157c.483-1.063-2.512-3.535-7.399-6.368zm-8.128-8.924a8.229 8.229 0 0 0-9.248 6.212l-.866-.485a8.228 8.228 0 0 1 14.991-3.089 8.2 8.2 0 0 0-4.877-2.638z" class="cls-7" transform="translate(0 0)"/>
                <path id="Path_6076" d="M2212.672 1903.256a8.208 8.208 0 0 0 1.319 3.863 8.236 8.236 0 0 1-2.006-4.22c-.48-.252-.951-.5-1.407-.752a9.343 9.343 0 0 0 14.92 6.752c-2.348-.856-4.918-1.9-7.581-3.109-1.848-.838-3.607-1.69-5.245-2.534z" class="cls-7" transform="translate(-13.204 -15.247)"/>
            </g>
        </g>
    </g>
</svg>
