<svg xmlns="http://www.w3.org/2000/svg" width="375.881" height="56.745" viewBox="0 0 375.881 56.745">
    <defs>
        <style>
            .cls-1{fill:#193247}.cls-2{fill:#d14b39}
        </style>
    </defs>
    <g id="Group_206" transform="translate(1113.946 -555.145)">
        <g id="Group_169" transform="translate(-1113.946 574.766)">
            <path id="Path_6082" d="M-1087.491 594.762v5.948a6.458 6.458 0 0 1-2.975 5.154l-.041.031c-.258.18-.528.357-.8.526a16.745 16.745 0 0 1-4.318 1.835 19.389 19.389 0 0 1-5.09.667 19.387 19.387 0 0 1-5.089-.667 16.246 16.246 0 0 1-5.175-2.4 6.44 6.44 0 0 1-2.962-5.146v-.362l.4-.224 9.809-5.44v5.473a1.219 1.219 0 0 0 .685 1.037 4.594 4.594 0 0 0 .8.358 4.666 4.666 0 0 0 1.537.256 4.672 4.672 0 0 0 1.534-.255l.032-.011.068-.026a4.575 4.575 0 0 0 .7-.323 1.2 1.2 0 0 0 .686-1.014v-5.153a1.249 1.249 0 0 0-.7-1.048 4.617 4.617 0 0 0-1.795-.576 5.129 5.129 0 0 0-.52-.028 18.5 18.5 0 0 1-2.357-.151 17.7 17.7 0 0 1-2.055-.388 15.676 15.676 0 0 1-4.593-1.947c-.272-.173-.543-.358-.806-.554a12.253 12.253 0 0 1-1.823-1.65 6.861 6.861 0 0 1-.775-1.049 5.532 5.532 0 0 1-.819-2.869v-3.713a6.72 6.72 0 0 1 .217-1.684 8.748 8.748 0 0 1 3.8-4.958c.253-.169.513-.326.77-.474a15.748 15.748 0 0 1 3.526-1.471 17.941 17.941 0 0 1 4.91-.673 17.943 17.943 0 0 1 4.911.673 14.1 14.1 0 0 1 6.748 4.045 6.165 6.165 0 0 1 1.36 2.413l.128.449L-1097.7 585v-4a1.616 1.616 0 0 0-.721-1.3 3.887 3.887 0 0 0-2.3-.752 3.846 3.846 0 0 0-.706.066 3.929 3.929 0 0 0-1.591.686 1.615 1.615 0 0 0-.72 1.3v3.285a2.24 2.24 0 0 0 1.5 1.954c.083.035.171.07.263.1a3.834 3.834 0 0 0 1.256.21 20.037 20.037 0 0 1 2.5.158c.651.084 1.284.2 1.882.332a17.553 17.553 0 0 1 3.639 1.262l.066.033.053.026a15.186 15.186 0 0 1 1.422.787l.047.029.154.1c.172.112.343.229.5.343a7.332 7.332 0 0 1 2.414 2.782 5.5 5.5 0 0 1 .551 2.361z" class="cls-1" transform="translate(1113.946 -571.797)"/>
        </g>
        <g id="Group_170" transform="translate(-764.519 574.766)">
            <path id="Path_6083" d="M-790.934 594.762v5.948a6.457 6.457 0 0 1-2.974 5.154l-.042.031c-.258.18-.527.357-.8.526a16.708 16.708 0 0 1-4.318 1.835 19.379 19.379 0 0 1-5.089.667 19.388 19.388 0 0 1-5.09-.667 16.259 16.259 0 0 1-5.175-2.4 6.443 6.443 0 0 1-2.962-5.146v-.362l.4-.224 9.809-5.44v5.473a1.218 1.218 0 0 0 .683 1.037 4.648 4.648 0 0 0 .8.358 4.659 4.659 0 0 0 1.536.256 4.665 4.665 0 0 0 1.533-.255l.032-.011.068-.026a4.531 4.531 0 0 0 .7-.323 1.205 1.205 0 0 0 .685-1.014v-5.153a1.248 1.248 0 0 0-.7-1.048 4.622 4.622 0 0 0-1.794-.576 5.172 5.172 0 0 0-.521-.028 18.486 18.486 0 0 1-2.355-.151 17.607 17.607 0 0 1-2.055-.388 15.668 15.668 0 0 1-4.594-1.947c-.271-.173-.542-.358-.8-.554a12.2 12.2 0 0 1-1.823-1.65 6.782 6.782 0 0 1-.775-1.049 5.524 5.524 0 0 1-.82-2.869v-3.713a6.723 6.723 0 0 1 .217-1.684 8.753 8.753 0 0 1 3.8-4.958c.255-.169.513-.326.769-.474a15.74 15.74 0 0 1 3.528-1.471 17.929 17.929 0 0 1 4.91-.673 17.95 17.95 0 0 1 4.911.673 14.108 14.108 0 0 1 6.748 4.045 6.163 6.163 0 0 1 1.359 2.413l.13.449-10.142 5.627v-4a1.613 1.613 0 0 0-.721-1.3 3.881 3.881 0 0 0-2.3-.752 3.86 3.86 0 0 0-.706.066 3.933 3.933 0 0 0-1.589.686 1.616 1.616 0 0 0-.721 1.3v3.285a2.239 2.239 0 0 0 1.5 1.954c.083.035.171.07.262.1a3.846 3.846 0 0 0 1.256.21 20.017 20.017 0 0 1 2.5.158c.653.084 1.284.2 1.882.332a17.562 17.562 0 0 1 3.64 1.262l.066.033.052.026a15.055 15.055 0 0 1 1.422.787l.047.029.156.1c.172.112.343.229.5.343a7.327 7.327 0 0 1 2.413 2.782 5.5 5.5 0 0 1 .552 2.361z" class="cls-1" transform="translate(817.389 -571.797)"/>
        </g>
        <g id="Group_171" transform="translate(-1075.536 575.488)">
            <path id="Path_6084" d="M-1053.846 583.587a11.108 11.108 0 0 1-5.122 9.16l-.039.026-12.13 6.729v8.798h-10.211v-35.89h13.611c5.3 0 10.107 2.187 12.251 5.572.045.073.091.145.134.219a10.421 10.421 0 0 1 1.415 4.007 10.292 10.292 0 0 1 .091 1.379zm-17.291 6.715l5.353-2.968a4.347 4.347 0 0 0 .8-.838 4.948 4.948 0 0 0 .931-2.909 4.954 4.954 0 0 0-.931-2.909 4.187 4.187 0 0 0-3.372-1.445h-2.777z" class="cls-1" transform="translate(1081.348 -572.41)"/>
        </g>
        <g id="Group_172" transform="translate(-1038.942 574.868)">
            <path id="Path_6085" d="M-1023.835 581.143v27.248h-10.212V596.25l-6.032 3.346v8.795h-10.211v-27.248a8.123 8.123 0 0 1 4.02-6.642 15.447 15.447 0 0 1 4.3-1.944 17.94 17.94 0 0 1 4.91-.673 17.942 17.942 0 0 1 4.911.673 15.472 15.472 0 0 1 4.3 1.944 8.127 8.127 0 0 1 4.014 6.642zm-10.933-1.354a3.87 3.87 0 0 0-2.3-.752 3.868 3.868 0 0 0-2.294.752 1.631 1.631 0 0 0-.721 1.3v9.311l6.032-3.345v-5.962a1.631 1.631 0 0 0-.717-1.304z" class="cls-1" transform="translate(1050.29 -571.884)"/>
        </g>
        <g id="Group_173" transform="translate(-1000.532 574.766)">
            <path id="Path_6086" d="M-1001.449 588.845V581a1.615 1.615 0 0 0-.72-1.3 3.887 3.887 0 0 0-2.3-.752 3.881 3.881 0 0 0-2.3.752 1.613 1.613 0 0 0-.721 1.3v18.848a1.95 1.95 0 0 0 1.487 1.706 4.713 4.713 0 0 0 1.529.252 4.7 4.7 0 0 0 1.528-.252 1.951 1.951 0 0 0 1.487-1.706v-5.57l10.212-5.664v11.169a7.386 7.386 0 0 1-2.119 5.034 12.46 12.46 0 0 1-5.7 3.345l-.32.09a19.359 19.359 0 0 1-5.091.668 19.388 19.388 0 0 1-5.09-.667l-.322-.091a11.482 11.482 0 0 1-6.766-4.754 6.925 6.925 0 0 1-1.05-3.626v-18.75a8.091 8.091 0 0 1 3.994-6.6 15.363 15.363 0 0 1 4.322-1.962 17.943 17.943 0 0 1 4.911-.673 17.949 17.949 0 0 1 4.911.673 15.41 15.41 0 0 1 4.322 1.961 8.1 8.1 0 0 1 3.994 6.6v2.149z" class="cls-1" transform="translate(1017.692 -571.797)"/>
        </g>
        <g id="Group_174" transform="translate(-962.122 575.488)">
            <path id="Path_6087" d="M-960.911 601.472l3.581 6.825h-27.764V572.41h27.764l-3.581 6.823h-13.972v7.312h8.122v6.813h-8.122v8.114z" class="cls-1" transform="translate(985.094 -572.41)"/>
        </g>
        <g id="Group_175" transform="translate(-913.693 575.488)">
            <path id="Path_6088" d="M-914.921 572.41l-3.58 6.823h-5.85V608.3h-10.211v-29.067h-5.85l-3.58-6.823z" class="cls-1" transform="translate(943.992 -572.41)"/>
        </g>
        <g id="Group_176" transform="translate(-876.663 574.766)">
            <path id="Path_6089" d="M-886.111 581.032v18.751a7.385 7.385 0 0 1-2.117 5.035 12.476 12.476 0 0 1-5.7 3.345l-.322.091a19.388 19.388 0 0 1-5.09.667 19.386 19.386 0 0 1-5.089-.667l-.323-.091a12.472 12.472 0 0 1-5.7-3.345 7.386 7.386 0 0 1-2.117-5.035v-18.751a8.1 8.1 0 0 1 3.993-6.6 15.432 15.432 0 0 1 4.323-1.961 17.936 17.936 0 0 1 4.91-.673 17.944 17.944 0 0 1 4.911.673 15.385 15.385 0 0 1 4.323 1.962 8.094 8.094 0 0 1 3.998 6.599zm-10.932-1.332a3.877 3.877 0 0 0-2.3-.752 3.877 3.877 0 0 0-2.294.752 1.633 1.633 0 0 0-.721 1.3v18.848a1.95 1.95 0 0 0 1.486 1.706 4.724 4.724 0 0 0 1.529.252 4.725 4.725 0 0 0 1.531-.252 1.951 1.951 0 0 0 1.486-1.706V581a1.633 1.633 0 0 0-.718-1.3z" class="cls-1" transform="translate(912.565 -571.797)"/>
        </g>
        <g id="Group_177" transform="translate(-838.254 575.384)">
            <path id="Path_6090" d="M-853.512 572.322v27.368a7.387 7.387 0 0 1-2.119 5.035 12.475 12.475 0 0 1-5.7 3.345l-.322.091a19.376 19.376 0 0 1-5.089.667 19.385 19.385 0 0 1-5.09-.667l-.322-.091a12.465 12.465 0 0 1-5.7-3.345 7.387 7.387 0 0 1-2.119-5.035v-27.368h10.211v27.434a1.95 1.95 0 0 0 1.487 1.706 4.719 4.719 0 0 0 1.529.252 4.725 4.725 0 0 0 1.531-.252 1.953 1.953 0 0 0 1.486-1.706v-27.434z" class="cls-1" transform="translate(879.967 -572.322)"/>
        </g>
        <g id="Group_178" transform="translate(-799.844 575.488)">
            <path id="Path_6091" d="M-819.637 608.3h-10.242l-5.215-9.94-2.064 1.145v8.795h-10.211v-35.89h13.612c5.3 0 10.107 2.187 12.251 5.572q.069.11.134.219a10.443 10.443 0 0 1 1.416 4.007 10.724 10.724 0 0 1 .09 1.379 11.108 11.108 0 0 1-5.122 9.16l-.038.026-2.134 1.184zm-13.412-20.273l1.244-.689a4.307 4.307 0 0 0 .8-.838 4.949 4.949 0 0 0 .932-2.909 4.954 4.954 0 0 0-.932-2.909 4.184 4.184 0 0 0-3.371-1.445h-2.778V590.3z" class="cls-1" transform="translate(847.369 -572.41)"/>
        </g>
        <g id="Group_180" transform="translate(-825.33 561.965)">
            <g id="Group_179">
                <path id="Path_6092" d="M-867.44 591.538a20.153 20.153 0 0 0 4.9-1.878c.187-.1 2.144-1.231 2.5-1.5l.569-.441a59.736 59.736 0 0 1 6.939-3.707 7.583 7.583 0 0 1 3.436.046l6.95 1.4a4.7 4.7 0 0 0 2.347-.042c1.075-.518 2.34-1.141 2.485-1.211.111-.075 1.058-.811 1.058-.811l.945-1.053c.014-.178-4.6-7.461-4.6-7.461l.553-.427a.286.286 0 0 0 .052-.4l-.172-.224c.252-.163.311-.272.328-.411l.927-.531c.077-.051.186-.113.186-.113a1.279 1.279 0 0 0-.212-.782 7.381 7.381 0 0 0-.612-.921c-.408-.528-.921-1.095-1.288-1.171.348-.415.821-.847 1.018-1.055.43-.454.642-.722.633-.936.027-.053-.042-.143-.042-.143l-.117-.15c-.269-.047-.581.091-1.122.389-.25.138-.787.487-1.271.806a1.3 1.3 0 0 0-.2-.707 7.492 7.492 0 0 0-.612-.92c-.447-.579-1.024-1.211-1.393-1.185-.029-.059-.137.049-.137.049-.038.031-.815.825-.815.825a.471.471 0 0 0-.363.085c-.126.128-.269-.057-.269-.057a.285.285 0 0 0-.4-.051l-.544.421-5.914-6.331a8.509 8.509 0 0 0-1.456.632l-.919.711-.1.084c0 .006-.99 1.148-1.809 2.11a4.746 4.746 0 0 0-.634 2.259l-.4 7.086a7.572 7.572 0 0 1-.823 3.33 60.734 60.734 0 0 1-5.321 5.763l-.634.489c-.63.564-1.921 1.872-2.041 2a20.173 20.173 0 0 0-3.055 4.268 1.628 1.628 0 0 0 .088 1.426 1.629 1.629 0 0 0 1.361.44z" class="cls-2" transform="translate(868.999 -560.933)"/>
            </g>
        </g>
        <g id="Group_204" transform="translate(-1113.663 555.145)">
            <g id="Group_181">
                <path id="Path_6093" d="M-1099.011 556.687a1.9 1.9 0 0 1-.1.556 3.755 3.755 0 0 1-.3.678 5.27 5.27 0 0 1-.464.7 3.82 3.82 0 0 1-.622.626 3.217 3.217 0 0 1-.76.45 2.279 2.279 0 0 1-.88.171c-.072 0-.167 0-.284-.013a1.816 1.816 0 0 1-.35-.06.9.9 0 0 1-.3-.141.3.3 0 0 1-.126-.249.5.5 0 0 1 .078-.239 1.349 1.349 0 0 1 .284-.317q.217-.171.47-.408a4.351 4.351 0 0 0 .458-.493 3.623 3.623 0 0 0 .344-.505.925.925 0 0 0 .139-.444.514.514 0 0 0-.163-.4.817.817 0 0 0-.561-.151 3.431 3.431 0 0 0-1.171.24 8.451 8.451 0 0 0-1.363.659 14.874 14.874 0 0 0-1.447.982q-.737.56-1.425 1.2t-1.3 1.328a13.176 13.176 0 0 0-1.062 1.361 7.535 7.535 0 0 0-.712 1.294 2.96 2.96 0 0 0-.26 1.126 1.221 1.221 0 0 0 .471 1 2.513 2.513 0 0 0 1.557.377 6.215 6.215 0 0 0 1.508-.279 14.536 14.536 0 0 0 1.671-.556q.668-.279 1.351-.616t1.3-.652q.615-.313 1.122-.566a6.035 6.035 0 0 1 .833-.355.281.281 0 0 1 .145-.034.254.254 0 0 1 .248.21 1.594 1.594 0 0 1 .066.475 1.447 1.447 0 0 1-.054.356 1.129 1.129 0 0 1-.344.483q-.133.111-.495.377t-.9.6q-.544.334-1.243.694a13.5 13.5 0 0 1-1.514.66 17.339 17.339 0 0 1-2.1.592 10.37 10.37 0 0 1-2.238.291 8.259 8.259 0 0 1-1.918-.193 4.009 4.009 0 0 1-1.3-.535 2.13 2.13 0 0 1-.742-.818 2.321 2.321 0 0 1-.236-1.042 4.3 4.3 0 0 1 .3-1.507 8.549 8.549 0 0 1 .839-1.637 13.552 13.552 0 0 1 1.278-1.661 16.824 16.824 0 0 1 1.63-1.589 17.791 17.791 0 0 1 1.888-1.409 16.022 16.022 0 0 1 2.051-1.131 12.759 12.759 0 0 1 2.111-.753 8.327 8.327 0 0 1 2.087-.274 5.52 5.52 0 0 1 .965.081 2.744 2.744 0 0 1 .8.262 1.442 1.442 0 0 1 .543.475 1.263 1.263 0 0 1 .197.723z" class="cls-1" transform="translate(1113.706 -555.145)"/>
            </g>
            <g id="Group_182" transform="translate(10.774 6.425)">
                <path id="Path_6094" d="M-1099.084 561.539q.47-.2.971-.377t.971-.3c.315-.082.614-.147.9-.2a4.63 4.63 0 0 1 .766-.072 1.591 1.591 0 0 1 .839.184.674.674 0 0 1 .3.621 1.73 1.73 0 0 1-.012.2 1.376 1.376 0 0 1-.048.227 1.325 1.325 0 0 1-.362.522 9.245 9.245 0 0 1-.707.626q-.4.325-.868.655l-.857.608c-.262.186-.479.346-.652.484s-.259.231-.259.283a.278.278 0 0 0 .012.094c.008.016.045.026.11.026q.65-.2 1.453-.476t1.6-.57q.8-.29 1.508-.569t1.206-.484a2.071 2.071 0 0 1 .223-.072.8.8 0 0 1 .212-.031.61.61 0 0 1 .362.1.321.321 0 0 1 .145.275.713.713 0 0 1-.236.45 2.784 2.784 0 0 1-.791.527l-.946.423q-.525.237-1.1.489t-1.158.493q-.585.24-1.129.429t-1.019.3a3.6 3.6 0 0 1-.826.115 2.24 2.24 0 0 1-1.249-.283.848.848 0 0 1-.416-.728.315.315 0 0 1 .012-.1 2.191 2.191 0 0 1 .313-.728 5.19 5.19 0 0 1 .519-.668c.192-.212.394-.412.6-.6s.4-.371.574-.54a4.8 4.8 0 0 0 .428-.467.66.66 0 0 0 .17-.394.168.168 0 0 0-.025-.086c-.016-.028-.052-.042-.108-.042a2.366 2.366 0 0 0-.476.077q-.332.078-.706.205a6.154 6.154 0 0 0-.713.3 1.362 1.362 0 0 0-.482.356c-.128.159-.278.363-.447.608s-.344.5-.526.771-.355.534-.524.8l-.435.676a1.672 1.672 0 0 1-.38.445 2.552 2.552 0 0 1-.512.333 3.073 3.073 0 0 1-.567.214 2.058 2.058 0 0 1-.531.077.821.821 0 0 1-.441-.1.364.364 0 0 1-.163-.333.846.846 0 0 1 .042-.236 1 1 0 0 1 .174-.312c.145-.194.292-.406.441-.634s.319-.49.513-.785.417-.63.669-1.011.554-.818.9-1.314a1.011 1.011 0 0 1-.283-.253.6.6 0 0 1-.115-.373.544.544 0 0 1 .121-.355.865.865 0 0 1 .326-.244 1.931 1.931 0 0 1 .476-.141 3.293 3.293 0 0 1 .573-.047 5.369 5.369 0 0 1 .628.038 3.193 3.193 0 0 1 .561.117 1.448 1.448 0 0 1 .4.187.322.322 0 0 1 .157.258.15.15 0 0 1-.025.068l-.054.094-.054.094a.155.155 0 0 0-.024.068.058.058 0 0 0 .051.008z" class="cls-1" transform="translate(1104.562 -560.598)"/>
            </g>
            <g id="Group_183" transform="translate(21.622 6.125)">
                <path id="Path_6095" d="M-1081.917 564.532a9.628 9.628 0 0 1-1.236.835 13.387 13.387 0 0 1-1.454.723 11.163 11.163 0 0 1-1.472.51 5.119 5.119 0 0 1-1.3.192 1.722 1.722 0 0 1-.941-.231.861.861 0 0 1-.362-.788 2.709 2.709 0 0 1 .193-.917 5.575 5.575 0 0 1-.785.677 6.518 6.518 0 0 1-1.073.626 6.865 6.865 0 0 1-1.351.457 7.078 7.078 0 0 1-1.628.176 4.739 4.739 0 0 1-.766-.06 2.055 2.055 0 0 1-.646-.205 1.2 1.2 0 0 1-.447-.39 1.046 1.046 0 0 1-.168-.612c0-.007.015-.093.048-.262a3.8 3.8 0 0 1 .306-.8 14.628 14.628 0 0 1 .8-1.409 23.266 23.266 0 0 1 1.532-2.1 1.482 1.482 0 0 1 .586-.467 1.806 1.806 0 0 1 .718-.141 2.15 2.15 0 0 1 .35.031 1.506 1.506 0 0 1 .337.094.74.74 0 0 1 .255.163.318.318 0 0 1 .1.227.392.392 0 0 1-.035.163 1.682 1.682 0 0 1-.259.381q-.2.235-.465.541c-.177.2-.364.421-.561.654a8.517 8.517 0 0 0-.549.728 5.687 5.687 0 0 0-.434.767 2.1 2.1 0 0 0-.2.758.409.409 0 0 0 .12.284.53.53 0 0 0 .4.128 3.708 3.708 0 0 0 1.5-.31 6.329 6.329 0 0 0 1.316-.766 8.45 8.45 0 0 0 1.091-.985 11.79 11.79 0 0 0 .814-.964 4.058 4.058 0 0 0 .405-.626 4.849 4.849 0 0 1 .379-.616 2.051 2.051 0 0 1 .47-.471 1.118 1.118 0 0 1 .665-.188 1.094 1.094 0 0 1 .687.2.581.581 0 0 1 .253.471.921.921 0 0 1-.163.424c-.108.18-.245.385-.41.617s-.344.478-.537.741-.372.529-.536.8a5.875 5.875 0 0 0-.41.8 1.873 1.873 0 0 0-.164.725q0 .308.531.307a3.6 3.6 0 0 0 .929-.153 7.92 7.92 0 0 0 1.164-.434 10.988 10.988 0 0 0 1.22-.655 6.918 6.918 0 0 0 1.079-.814z" class="cls-1" transform="translate(1095.356 -560.343)"/>
            </g>
            <g id="Group_184" transform="translate(32.648 3.769)">
                <path id="Path_6096" d="M-1083.657 561.453a1.171 1.171 0 0 1 .47-.343 1.5 1.5 0 0 1 .543-.1 1.448 1.448 0 0 1 .791.21.62.62 0 0 1 .331.535c-.008.052-.018.1-.029.154a.418.418 0 0 1-.079.154c-.113.148-.2.275-.278.377s-.138.2-.2.288-.119.176-.176.26l-.2.309q-.145.214-.325.467t-.344.518a4.619 4.619 0 0 0-.278.522 1.168 1.168 0 0 0-.114.471.3.3 0 0 0 .163.305 1.183 1.183 0 0 0 .465.072 2.622 2.622 0 0 0 .7-.1 5.457 5.457 0 0 0 .742-.266 7.1 7.1 0 0 0 .736-.372c.241-.139.468-.28.681-.424s.41-.279.591-.411.332-.247.452-.351a.869.869 0 0 1 .483-.163.484.484 0 0 1 .356.138.474.474 0 0 1 .138.351.806.806 0 0 1-.138.42 1.393 1.393 0 0 1-.452.419q-.615.445-1.255.853a11.549 11.549 0 0 1-1.309.719 8.718 8.718 0 0 1-1.346.5 5.083 5.083 0 0 1-1.363.187 2.857 2.857 0 0 1-1.538-.355 1.219 1.219 0 0 1-.562-1.11 2 2 0 0 1 .157-.771 5.444 5.444 0 0 1 .375-.733c.145-.236.3-.465.458-.685a6.158 6.158 0 0 0 .41-.629c.04-.074.111-.189.211-.343s.208-.311.32-.471l.413-.602zm1.327-1.928a.924.924 0 0 1 .1-.407 1.167 1.167 0 0 1 .307-.382 1.753 1.753 0 0 1 .513-.283 2.156 2.156 0 0 1 .73-.111 1.81 1.81 0 0 1 .978.192.575.575 0 0 1 .277.484.883.883 0 0 1-.091.36 1.164 1.164 0 0 1-.271.364 1.475 1.475 0 0 1-.471.278 1.913 1.913 0 0 1-.687.111 2.35 2.35 0 0 1-1.05-.166.592.592 0 0 1-.335-.439z" class="cls-1" transform="translate(1085.998 -558.344)"/>
            </g>
            <g id="Group_185" transform="translate(37.619 6.142)">
                <path id="Path_6097" d="M-1076.736 561.753a7.786 7.786 0 0 1 1.315.627 5.561 5.561 0 0 1 .984.74 3.187 3.187 0 0 1 .615.793 1.7 1.7 0 0 1 .211.787 1.21 1.21 0 0 1-.392.879 3.232 3.232 0 0 1-1.025.66 6.653 6.653 0 0 1-1.448.411 9.607 9.607 0 0 1-1.646.14 7.507 7.507 0 0 1-1.22-.1 4.86 4.86 0 0 1-1.079-.3 2.871 2.871 0 0 1-.839-.527 1.771 1.771 0 0 1-.495-.767.372.372 0 0 1-.024-.111.486.486 0 0 1 .23-.4.84.84 0 0 1 .507-.166 1.4 1.4 0 0 1 .3.034.385.385 0 0 1 .246.153 1.451 1.451 0 0 0 .441.369 3.482 3.482 0 0 0 .634.279 4.866 4.866 0 0 0 .741.179 4.654 4.654 0 0 0 .767.065 5.19 5.19 0 0 0 .741-.052 2.657 2.657 0 0 0 .628-.163 1.169 1.169 0 0 0 .428-.283.6.6 0 0 0 .158-.419 1.314 1.314 0 0 0-.278-.806 3.267 3.267 0 0 0-.718-.681 6.977 6.977 0 0 0-1-.582q-.562-.269-1.116-.517a.708.708 0 0 1-.182-.151.366.366 0 0 1-.12-.253.2.2 0 0 1 .072-.163 5.333 5.333 0 0 1 .447-.368 4.594 4.594 0 0 1 .543-.348 3.187 3.187 0 0 1 .627-.257 2.518 2.518 0 0 1 .7-.1 2.271 2.271 0 0 1 .495.051 1.626 1.626 0 0 1 .386.133.912.912 0 0 1 .247.18.284.284 0 0 1 .089.184.381.381 0 0 1-.084.231 1.088 1.088 0 0 1-.224.214 3.425 3.425 0 0 1-.313.205c-.121.072-.236.139-.349.2z" class="cls-1" transform="translate(1081.779 -560.358)"/>
            </g>
            <g id="Group_186" transform="translate(45.655 6.125)">
                <path id="Path_6098" d="M-1068.626 560.343a2.643 2.643 0 0 1 1.5.343 1.094 1.094 0 0 1 .495.951 1.359 1.359 0 0 1-.265.754 3.011 3.011 0 0 1-.918.8 10.61 10.61 0 0 1-1.743.832 25.745 25.745 0 0 1-2.733.852.6.6 0 0 0 .374.39 2.049 2.049 0 0 0 .832.141 6.673 6.673 0 0 0 1.189-.115q.633-.117 1.255-.3c.415-.12.818-.25 1.213-.39s.75-.272 1.068-.4.583-.235.8-.325.356-.148.429-.172a.606.606 0 0 1 .2-.06c.061 0 .115-.008.164-.008a.563.563 0 0 1 .242.047.639.639 0 0 1 .163.112.353.353 0 0 1 .091.137.426.426 0 0 1 .024.124.915.915 0 0 1-.024.185.526.526 0 0 1-.182.244c-.04.028-.174.1-.4.231s-.524.275-.886.445-.784.352-1.262.544-.985.368-1.52.527a15.9 15.9 0 0 1-1.671.4 9.486 9.486 0 0 1-1.713.158 3.846 3.846 0 0 1-1.284-.2 2.941 2.941 0 0 1-.953-.53 2.272 2.272 0 0 1-.6-.772 2.131 2.131 0 0 1-.2-.917 1.945 1.945 0 0 1 .2-.81 3.843 3.843 0 0 1 .59-.886 6.238 6.238 0 0 1 .947-.87 6.931 6.931 0 0 1 1.261-.749 8.006 8.006 0 0 1 1.539-.523 7.84 7.84 0 0 1 1.778-.19zm-.434 1.182a.743.743 0 0 0-.108-.008h-.109a2.756 2.756 0 0 0-.856.128 3.188 3.188 0 0 0-.73.339 3.172 3.172 0 0 0-.591.475 6.347 6.347 0 0 0-.464.527 4.53 4.53 0 0 0-.344.5q-.138.24-.211.4c.282-.1.573-.22.874-.351s.586-.257.851-.377.5-.229.694-.325.336-.163.416-.2a2.536 2.536 0 0 0 .748-.45.58.58 0 0 0 .2-.364.237.237 0 0 0-.114-.206.59.59 0 0 0-.255-.088z" class="cls-1" transform="translate(1074.959 -560.343)"/>
            </g>
            <g id="Group_187" transform="translate(53.485 6.142)">
                <path id="Path_6099" d="M-1063.271 561.753a7.834 7.834 0 0 1 1.315.627 5.568 5.568 0 0 1 .984.74 3.183 3.183 0 0 1 .615.793 1.694 1.694 0 0 1 .211.787 1.211 1.211 0 0 1-.392.879 3.236 3.236 0 0 1-1.025.66 6.659 6.659 0 0 1-1.448.411 9.612 9.612 0 0 1-1.647.14 7.5 7.5 0 0 1-1.218-.1 4.864 4.864 0 0 1-1.079-.3 2.872 2.872 0 0 1-.839-.527 1.767 1.767 0 0 1-.495-.767.372.372 0 0 1-.024-.111.485.485 0 0 1 .23-.4.84.84 0 0 1 .507-.166 1.405 1.405 0 0 1 .3.034.391.391 0 0 1 .247.153 1.431 1.431 0 0 0 .44.369 3.483 3.483 0 0 0 .634.279 4.833 4.833 0 0 0 .741.179 4.656 4.656 0 0 0 .767.065 5.191 5.191 0 0 0 .741-.052 2.657 2.657 0 0 0 .628-.163 1.168 1.168 0 0 0 .428-.283.6.6 0 0 0 .158-.419 1.314 1.314 0 0 0-.278-.806 3.263 3.263 0 0 0-.718-.681 6.985 6.985 0 0 0-1-.582q-.562-.269-1.116-.517a.71.71 0 0 1-.182-.151.367.367 0 0 1-.12-.253.2.2 0 0 1 .072-.163 5.33 5.33 0 0 1 .447-.368 4.6 4.6 0 0 1 .543-.348 3.155 3.155 0 0 1 .627-.257 2.516 2.516 0 0 1 .7-.1 2.27 2.27 0 0 1 .495.051 1.593 1.593 0 0 1 .385.133.875.875 0 0 1 .247.18.282.282 0 0 1 .091.184.382.382 0 0 1-.084.231 1.093 1.093 0 0 1-.224.214 3.664 3.664 0 0 1-.314.205c-.122.072-.237.139-.35.2z" class="cls-1" transform="translate(1068.314 -560.358)"/>
            </g>
            <g id="Group_188" transform="translate(67.468 3.769)">
                <path id="Path_6100" d="M-1054.106 561.453a1.171 1.171 0 0 1 .47-.343 1.5 1.5 0 0 1 .543-.1 1.445 1.445 0 0 1 .791.21.618.618 0 0 1 .331.535c-.007.052-.018.1-.03.154a.4.4 0 0 1-.079.154c-.112.148-.205.275-.277.377l-.2.288c-.061.088-.119.176-.175.26l-.205.309q-.145.214-.325.467t-.344.518a4.4 4.4 0 0 0-.277.522 1.173 1.173 0 0 0-.115.471.3.3 0 0 0 .163.305 1.187 1.187 0 0 0 .465.072 2.638 2.638 0 0 0 .706-.1 5.489 5.489 0 0 0 .741-.266 7.06 7.06 0 0 0 .736-.372q.363-.209.682-.424c.212-.143.41-.279.59-.411s.332-.247.453-.351a.869.869 0 0 1 .483-.163.484.484 0 0 1 .356.138.474.474 0 0 1 .139.351.807.807 0 0 1-.139.42 1.382 1.382 0 0 1-.453.419q-.615.445-1.255.853a11.569 11.569 0 0 1-1.309.719 8.73 8.73 0 0 1-1.346.5 5.082 5.082 0 0 1-1.363.187 2.857 2.857 0 0 1-1.538-.355 1.218 1.218 0 0 1-.561-1.11 1.981 1.981 0 0 1 .157-.771 5.311 5.311 0 0 1 .373-.733c.145-.236.3-.465.458-.685a6.158 6.158 0 0 0 .41-.629c.04-.074.111-.189.211-.343s.207-.311.321-.471l.412-.602zm1.328-1.928a.918.918 0 0 1 .1-.407 1.151 1.151 0 0 1 .309-.382 1.737 1.737 0 0 1 .512-.283 2.145 2.145 0 0 1 .729-.111 1.811 1.811 0 0 1 .978.192.572.572 0 0 1 .277.484.861.861 0 0 1-.091.36 1.168 1.168 0 0 1-.271.364 1.453 1.453 0 0 1-.47.278 1.919 1.919 0 0 1-.688.111 2.358 2.358 0 0 1-1.05-.166.591.591 0 0 1-.335-.439z" class="cls-1" transform="translate(1056.446 -558.344)"/>
            </g>
            <g id="Group_189" transform="translate(72.958 6.133)">
                <path id="Path_6101" d="M-1048.8 561.379a1.525 1.525 0 0 1 .6-.549 1.6 1.6 0 0 1 .712-.179.921.921 0 0 1 .518.15.494.494 0 0 1 .23.441.863.863 0 0 1-.036.24.962.962 0 0 1-.133.273 3.683 3.683 0 0 1 .761-.493 8.16 8.16 0 0 1 1.091-.454 10.417 10.417 0 0 1 1.231-.33 6.105 6.105 0 0 1 1.2-.128 2.326 2.326 0 0 1 1.068.219.764.764 0 0 1 .428.74 1.738 1.738 0 0 1-.132.643 4.17 4.17 0 0 1-.344.668 7.3 7.3 0 0 1-.47.655q-.26.322-.514.6l-.464.517c-.141.158-.251.288-.332.39a.416.416 0 0 0-.157.318.151.151 0 0 0 .061.119.294.294 0 0 0 .193.052 1.756 1.756 0 0 0 .192-.013.873.873 0 0 0 .266-.09 13.717 13.717 0 0 0 1.333-.429c.455-.172.891-.352 1.309-.544s.8-.382 1.152-.574.641-.364.874-.518a.714.714 0 0 1 .193-.085.677.677 0 0 1 .182-.026.446.446 0 0 1 .319.111.382.382 0 0 1 .115.283 1.048 1.048 0 0 1-.237.591 2.243 2.243 0 0 1-.741.608l-1.262.643q-.573.29-1.169.543c-.4.168-.825.325-1.28.471a15.653 15.653 0 0 1-1.6.406c-.21.046-.4.08-.574.1a3.551 3.551 0 0 1-.476.034 1.424 1.424 0 0 1-.936-.252.881.881 0 0 1-.3-.707c0-.039 0-.078.006-.115l.019-.124a1.488 1.488 0 0 1 .2-.582 5.635 5.635 0 0 1 .422-.652q.248-.334.525-.665t.512-.625q.237-.3.392-.527a.738.738 0 0 0 .157-.377.28.28 0 0 0-.1-.218.456.456 0 0 0-.309-.091 3.418 3.418 0 0 0-1.466.325 6.746 6.746 0 0 0-1.3.8 10.733 10.733 0 0 0-1.11 1.006q-.505.532-.892.951a4.887 4.887 0 0 0-.441.6 6.626 6.626 0 0 1-.416.6 2.15 2.15 0 0 1-.489.462 1.177 1.177 0 0 1-.681.184 1.059 1.059 0 0 1-.665-.187.57.57 0 0 1-.24-.463 1.212 1.212 0 0 1 .168-.471c.113-.217.257-.468.435-.754s.376-.591.6-.92.443-.654.665-.977.431-.627.633-.912.38-.513.504-.712z" class="cls-1" transform="translate(1051.787 -560.35)"/>
            </g>
            <g id="Group_190" transform="translate(91.658)">
                <path id="Path_6102" d="M-1022.9 556.181a2.144 2.144 0 0 1 .435-.454 2.627 2.627 0 0 1 .543-.325 2.926 2.926 0 0 1 .59-.192 2.7 2.7 0 0 1 .568-.065 1.373 1.373 0 0 1 .652.141.449.449 0 0 1 .265.415.882.882 0 0 1-.157.463q-.677 1.029-1.376 2.069t-1.4 2.035q-.707.993-1.381 1.914t-1.3 1.71q-.63.788-1.177 1.413a13.93 13.93 0 0 1-.995 1.037q1.048-.051 1.917-.137t1.678-.2q.808-.113 1.622-.245t1.756-.27a1.207 1.207 0 0 1 .132-.026c.048 0 .093-.008.133-.008a.821.821 0 0 1 .592.21.645.645 0 0 1 .217.476q0 .163-.435.346a7.576 7.576 0 0 1-1.188.364q-.755.18-1.774.348t-2.2.291q-1.183.124-2.473.2t-2.57.073a19.213 19.213 0 0 1-2.558-.146 8.448 8.448 0 0 1-1.767-.4 2.685 2.685 0 0 1-1.025-.608 1.094 1.094 0 0 1-.332-.764 1.1 1.1 0 0 1 .211-.681 1.5 1.5 0 0 1 .58-.449 3.175 3.175 0 0 1 .868-.249 7.05 7.05 0 0 1 1.079-.078 4.237 4.237 0 0 1 .978.12 7.167 7.167 0 0 1 1 .313 8.974 8.974 0 0 1 .928.428 6.377 6.377 0 0 1 .766.475q.278-.513.669-1.148t.851-1.331q.46-.7.965-1.43t1.015-1.443q.505-.711.989-1.372t.893-1.208c.273-.364.516-.688.729-.967s.369-.496.487-.645zm-10.726 9.535c0 .074.057.15.17.227a1.9 1.9 0 0 0 .525.219 5.748 5.748 0 0 0 .917.166 13.161 13.161 0 0 0 1.346.073c-.241-.092-.484-.187-.73-.286s-.48-.192-.7-.275-.431-.152-.615-.206a1.735 1.735 0 0 0-.471-.081q-.44 0-.44.162z" class="cls-1" transform="translate(1035.916 -555.145)"/>
            </g>
            <g id="Group_191" transform="translate(106.341 6.125)">
                <path id="Path_6103" d="M-1010.014 564.532a9.638 9.638 0 0 1-1.236.835 13.365 13.365 0 0 1-1.454.723 11.187 11.187 0 0 1-1.473.51 5.113 5.113 0 0 1-1.3.192 1.722 1.722 0 0 1-.942-.231.861.861 0 0 1-.362-.788 2.705 2.705 0 0 1 .192-.917 5.5 5.5 0 0 1-.784.677 6.518 6.518 0 0 1-1.073.626 6.889 6.889 0 0 1-1.351.457 7.092 7.092 0 0 1-1.628.176 4.752 4.752 0 0 1-.767-.06 2.073 2.073 0 0 1-.646-.205 1.2 1.2 0 0 1-.445-.39 1.046 1.046 0 0 1-.17-.612c0-.007.017-.093.048-.262a3.756 3.756 0 0 1 .308-.8 14.791 14.791 0 0 1 .8-1.409 23.474 23.474 0 0 1 1.532-2.1 1.491 1.491 0 0 1 .586-.467 1.816 1.816 0 0 1 .718-.141 2.131 2.131 0 0 1 .35.031 1.521 1.521 0 0 1 .338.094.735.735 0 0 1 .253.163.314.314 0 0 1 .1.227.372.372 0 0 1-.036.163 1.609 1.609 0 0 1-.259.381q-.2.235-.464.541c-.177.2-.364.421-.561.654a8.517 8.517 0 0 0-.549.728 5.832 5.832 0 0 0-.435.767 2.148 2.148 0 0 0-.205.758.406.406 0 0 0 .121.284.527.527 0 0 0 .4.128 3.717 3.717 0 0 0 1.5-.31 6.286 6.286 0 0 0 1.315-.766 8.4 8.4 0 0 0 1.092-.985 12.07 12.07 0 0 0 .814-.964 3.981 3.981 0 0 0 .4-.626 4.968 4.968 0 0 1 .38-.616 2.051 2.051 0 0 1 .47-.471 1.115 1.115 0 0 1 .663-.188 1.1 1.1 0 0 1 .688.2.585.585 0 0 1 .253.471.921.921 0 0 1-.163.424c-.108.18-.246.385-.411.617s-.343.478-.536.741-.372.529-.537.8a6.034 6.034 0 0 0-.41.8 1.892 1.892 0 0 0-.163.725q0 .308.531.307a3.6 3.6 0 0 0 .929-.153 7.977 7.977 0 0 0 1.164-.434 11.094 11.094 0 0 0 1.218-.655 6.872 6.872 0 0 0 1.08-.814z" class="cls-1" transform="translate(1023.455 -560.343)"/>
            </g>
            <g id="Group_192" transform="translate(115.498 6.227)">
                <path id="Path_6104" d="M-1010.4 560.43a3.471 3.471 0 0 1 .52.034.754.754 0 0 1 .361.151.7.7 0 0 1 .218.308 1.446 1.446 0 0 1 .073.5v.986l2.677-1.594a2.431 2.431 0 0 1 1.231-.359 1.346 1.346 0 0 1 .6.12.361.361 0 0 1 .242.317.414.414 0 0 1-.115.257 1.313 1.313 0 0 1-.343.273l-4.006 2.4.145 1.165a.371.371 0 0 0 .422.419 3.568 3.568 0 0 0 1.146-.244 13.433 13.433 0 0 0 1.593-.707l1.387-.719a1.118 1.118 0 0 1 .447-.094.666.666 0 0 1 .416.124.384.384 0 0 1 .163.322.843.843 0 0 1-.223.5 2.318 2.318 0 0 1-.8.566q-.9.454-1.587.762t-1.242.5a7.275 7.275 0 0 1-1.038.278 5.461 5.461 0 0 1-.959.085 2.538 2.538 0 0 1-1.622-.436 1.718 1.718 0 0 1-.536-1.414l-2.631 1.611a1.745 1.745 0 0 1-.464.184 1.89 1.89 0 0 1-.441.055 1.348 1.348 0 0 1-.652-.145.421.421 0 0 1-.265-.359q0-.24.434-.471l3.718-2.3v-2.082a.9.9 0 0 1 .168-.59 1.026 1.026 0 0 1 .374-.3 1.067 1.067 0 0 1 .386-.1z" class="cls-1" transform="translate(1015.683 -560.43)"/>
            </g>
            <g id="Group_193" transform="translate(126.019 6.133)">
                <path id="Path_6105" d="M-1000.673 560.35a6.206 6.206 0 0 1 .984.086 3.814 3.814 0 0 1 .971.291 2.213 2.213 0 0 1 .742.544 1.225 1.225 0 0 1 .3.835 2.141 2.141 0 0 1-.1.587 3.69 3.69 0 0 1-.29.689.715.715 0 0 0 .278.146 1.275 1.275 0 0 0 .337.042 1.78 1.78 0 0 0 .561-.1 4.871 4.871 0 0 0 .634-.266 7.458 7.458 0 0 0 .651-.368c.217-.137.422-.274.615-.411s.369-.267.526-.39.286-.226.391-.313a.354.354 0 0 1 .2-.06.431.431 0 0 1 .3.125.456.456 0 0 1 .133.348.991.991 0 0 1-.187.514 2.212 2.212 0 0 1-.694.608l-.663.514a8.164 8.164 0 0 1-.8.548 5.627 5.627 0 0 1-.88.437 2.491 2.491 0 0 1-.918.18 2.67 2.67 0 0 1-.608-.069 2.565 2.565 0 0 1-.6-.222 6.1 6.1 0 0 1-.99.873 6.315 6.315 0 0 1-1.236.678 7.922 7.922 0 0 1-1.473.441 8.513 8.513 0 0 1-1.682.158 3.809 3.809 0 0 1-.785-.094 3.112 3.112 0 0 1-.85-.312 2.159 2.159 0 0 1-.682-.569 1.343 1.343 0 0 1-.278-.858 2.741 2.741 0 0 1 .157-.821 4.521 4.521 0 0 1 .477-.99 6.118 6.118 0 0 1 .808-1.011 5.541 5.541 0 0 1 1.164-.9 6.5 6.5 0 0 1 1.545-.643 7.133 7.133 0 0 1 1.942-.247zm-.627 1.508a3.022 3.022 0 0 0-1.092.2 3.336 3.336 0 0 0-.929.531 2.727 2.727 0 0 0-.646.745 1.67 1.67 0 0 0-.241.852 1.886 1.886 0 0 0 .036.356.921.921 0 0 0 .151.359.878.878 0 0 0 .331.279 1.279 1.279 0 0 0 .58.111 2.874 2.874 0 0 0 1.079-.21 3.523 3.523 0 0 0 .936-.548 2.743 2.743 0 0 0 .651-.767 1.738 1.738 0 0 0 .24-.865 2.218 2.218 0 0 0-.03-.356.767.767 0 0 0-.145-.338.828.828 0 0 0-.331-.252 1.455 1.455 0 0 0-.59-.097z" class="cls-1" transform="translate(1006.754 -560.35)"/>
            </g>
            <g id="Group_194" transform="translate(135.817 6.425)">
                <path id="Path_6106" d="M-992.961 561.539q.47-.2.971-.377t.971-.3c.313-.082.614-.147.9-.2a4.63 4.63 0 0 1 .766-.072 1.6 1.6 0 0 1 .839.184.674.674 0 0 1 .3.621 1.8 1.8 0 0 1-.013.2 1.261 1.261 0 0 1-.047.227 1.314 1.314 0 0 1-.363.522 9.152 9.152 0 0 1-.7.626q-.4.325-.87.655l-.857.608c-.262.186-.478.346-.652.484s-.259.231-.259.283a.279.279 0 0 0 .012.094c.008.016.045.026.11.026q.65-.2 1.453-.476t1.6-.57q.8-.29 1.508-.569t1.207-.484a1.918 1.918 0 0 1 .224-.072.78.78 0 0 1 .211-.031.613.613 0 0 1 .362.1.323.323 0 0 1 .145.275.713.713 0 0 1-.236.45 2.784 2.784 0 0 1-.791.527l-.947.423q-.523.237-1.1.489c-.383.169-.768.332-1.159.493s-.766.3-1.128.429-.7.226-1.019.3a3.61 3.61 0 0 1-.826.115 2.236 2.236 0 0 1-1.249-.283.85.85 0 0 1-.417-.728.315.315 0 0 1 .013-.1 2.191 2.191 0 0 1 .313-.728 5.085 5.085 0 0 1 .518-.668c.193-.212.395-.412.6-.6s.4-.371.574-.54a4.969 4.969 0 0 0 .428-.467.658.658 0 0 0 .168-.394.166.166 0 0 0-.023-.086c-.016-.028-.053-.042-.108-.042a2.383 2.383 0 0 0-.477.077c-.222.052-.456.12-.706.205a6.227 6.227 0 0 0-.712.3 1.363 1.363 0 0 0-.482.356c-.13.159-.278.363-.447.608s-.344.5-.526.771-.356.534-.524.8-.314.488-.435.676a1.694 1.694 0 0 1-.379.445 2.585 2.585 0 0 1-.513.333 3.077 3.077 0 0 1-.568.214 2.058 2.058 0 0 1-.53.077.818.818 0 0 1-.441-.1.364.364 0 0 1-.163-.333.851.851 0 0 1 .042-.236 1 1 0 0 1 .175-.312c.145-.194.291-.406.441-.634s.319-.49.512-.785.416-.63.67-1.011.552-.818.9-1.314a1.028 1.028 0 0 1-.284-.253.594.594 0 0 1-.114-.373.544.544 0 0 1 .121-.355.87.87 0 0 1 .325-.244 1.954 1.954 0 0 1 .477-.141 3.284 3.284 0 0 1 .573-.047 5.343 5.343 0 0 1 .627.038 3.148 3.148 0 0 1 .561.117 1.444 1.444 0 0 1 .405.187.32.32 0 0 1 .156.258.147.147 0 0 1-.024.068l-.054.094-.054.094a.143.143 0 0 0-.024.068.058.058 0 0 0 .043.008z" class="cls-1" transform="translate(998.439 -560.598)"/>
            </g>
            <g id="Group_195" transform="translate(145.903 6.297)">
                <path id="Path_6107" d="M-981.24 561.122a6.106 6.106 0 0 1 .573-.286 3.518 3.518 0 0 1 .4-.146 1.563 1.563 0 0 1 .308-.055c.092-.006.187-.008.284-.008a.446.446 0 0 1 .362.132.436.436 0 0 1 .108.279.437.437 0 0 1-.06.223l-2.7 4a12.668 12.668 0 0 1 1.333-.6q.753-.3 1.448-.53t1.194-.382a4.2 4.2 0 0 1 .574-.145.9.9 0 0 1 .53.163.487.487 0 0 1 .23.411.71.71 0 0 1-.236.47 2.323 2.323 0 0 1-.826.481q-.845.334-1.472.569t-1.111.424c-.322.125-.607.24-.857.343s-.484.208-.706.317-.438.224-.652.346-.444.266-.693.432q-.277.514-.549.986t-.495.831q-.223.359-.368.582c-.1.148-.15.229-.158.239a2.691 2.691 0 0 1-2.147 1.44 1.269 1.269 0 0 1-.785-.227.729.729 0 0 1-.3-.613 2.111 2.111 0 0 1 .127-.715 3.108 3.108 0 0 1 .447-.784 9.158 9.158 0 0 1 .844-.954q.525-.528 1.322-1.238l2.412-3.469a20.619 20.619 0 0 1-3.281 2.329 5.764 5.764 0 0 1-2.75.8 1.675 1.675 0 0 1-.7-.132.455.455 0 0 1-.29-.442 2.088 2.088 0 0 1 .29-.967c.112-.194.225-.374.337-.536s.23-.325.35-.488.249-.338.381-.527.277-.4.435-.639.33-.51.518-.821.4-.675.634-1.093a1.367 1.367 0 0 1 .627-.483 2.056 2.056 0 0 1 .748-.15 1.466 1.466 0 0 1 .634.124c.172.083.259.192.259.33a.331.331 0 0 1-.048.179l-2.208 3.264a.787.787 0 0 0-.169.395c0 .085.048.128.144.128a.863.863 0 0 0 .338-.094 2.767 2.767 0 0 0 .386-.214z" class="cls-1" transform="translate(989.879 -560.489)"/>
            </g>
            <g id="Group_196" transform="translate(168.911 2.236)">
                <path id="Path_6108" d="M-966.021 562.405q-.447.617-.845 1.2t-.748 1.084a3.864 3.864 0 0 0-.283.475 1.063 1.063 0 0 0-.139.476.237.237 0 0 0 .079.189.4.4 0 0 0 .259.068 2.514 2.514 0 0 0 .639-.107 8.717 8.717 0 0 0 .833-.283q.445-.175.94-.4t.972-.471q.475-.244.911-.488t.772-.45a.833.833 0 0 1 .363-.094.469.469 0 0 1 .337.128.436.436 0 0 1 .133.326.741.741 0 0 1-.133.4 1.346 1.346 0 0 1-.482.4q-.785.505-1.587.96t-1.593.8a10.8 10.8 0 0 1-1.562.553 5.818 5.818 0 0 1-1.5.205 3.1 3.1 0 0 1-.809-.09 1.457 1.457 0 0 1-.524-.249.877.877 0 0 1-.283-.368 1.19 1.19 0 0 1-.085-.45 2.2 2.2 0 0 1 .2-.891 5.044 5.044 0 0 1 .458-.831l.718-1.053q.357-.523.694-1h-.518a1.936 1.936 0 0 1-.93-.154.43.43 0 0 1-.253-.351.424.424 0 0 1 .079-.21.85.85 0 0 1 .229-.232 1.537 1.537 0 0 1 .369-.184 1.489 1.489 0 0 1 .494-.077h1.3l2.546-3.589a1.337 1.337 0 0 1 .6-.467 1.988 1.988 0 0 1 .742-.141 1.59 1.59 0 0 1 .662.137.466.466 0 0 1 .3.454.636.636 0 0 1-.1.33c-.068.111-.159.242-.272.39q-.108.145-.265.346t-.332.429c-.117.151-.237.31-.362.475s-.247.326-.368.481l-.868 1.156h3.933q.29 0 .53.021a1.591 1.591 0 0 1 .416.086.638.638 0 0 1 .272.176.44.44 0 0 1 .1.3.452.452 0 0 1-.042.188.417.417 0 0 1-.157.171 1 1 0 0 1-.313.128 2.732 2.732 0 0 1-.514.07z" class="cls-1" transform="translate(970.352 -557.043)"/>
            </g>
            <g id="Group_197" transform="translate(175.184 6.133)">
                <path id="Path_6109" d="M-958.947 560.35a6.189 6.189 0 0 1 .983.086 3.809 3.809 0 0 1 .972.291 2.214 2.214 0 0 1 .742.544 1.224 1.224 0 0 1 .294.835 2.1 2.1 0 0 1-.1.587 3.611 3.611 0 0 1-.289.689.721.721 0 0 0 .277.146 1.289 1.289 0 0 0 .338.042 1.792 1.792 0 0 0 .561-.1 4.856 4.856 0 0 0 .633-.266 7.12 7.12 0 0 0 .652-.368c.218-.137.423-.274.616-.411s.368-.267.524-.39.288-.226.392-.313a.353.353 0 0 1 .2-.06.431.431 0 0 1 .3.125.455.455 0 0 1 .133.348.991.991 0 0 1-.187.514 2.212 2.212 0 0 1-.694.608q-.29.223-.663.514a8.314 8.314 0 0 1-.8.548 5.671 5.671 0 0 1-.88.437 2.494 2.494 0 0 1-.918.18 2.668 2.668 0 0 1-.608-.069 2.572 2.572 0 0 1-.6-.222 6.033 6.033 0 0 1-.989.873 6.314 6.314 0 0 1-1.236.678 7.925 7.925 0 0 1-1.473.441 8.513 8.513 0 0 1-1.682.158 3.809 3.809 0 0 1-.785-.094 3.132 3.132 0 0 1-.851-.312 2.154 2.154 0 0 1-.681-.569 1.343 1.343 0 0 1-.278-.858 2.709 2.709 0 0 1 .157-.821 4.533 4.533 0 0 1 .477-.99 6.119 6.119 0 0 1 .808-1.011 5.513 5.513 0 0 1 1.164-.9 6.478 6.478 0 0 1 1.545-.643 7.128 7.128 0 0 1 1.946-.247zm-.628 1.508a3.016 3.016 0 0 0-1.091.2 3.337 3.337 0 0 0-.928.531 2.687 2.687 0 0 0-.646.745 1.671 1.671 0 0 0-.242.852 1.887 1.887 0 0 0 .037.356.938.938 0 0 0 .15.359.873.873 0 0 0 .332.279 1.278 1.278 0 0 0 .58.111 2.874 2.874 0 0 0 1.079-.21 3.517 3.517 0 0 0 .935-.548 2.742 2.742 0 0 0 .652-.767 1.749 1.749 0 0 0 .24-.865 2.351 2.351 0 0 0-.029-.356.766.766 0 0 0-.145-.338.825.825 0 0 0-.332-.252 1.452 1.452 0 0 0-.592-.097z" class="cls-1" transform="translate(965.028 -560.35)"/>
            </g>
            <g id="Group_198" transform="translate(198.229)">
                <path id="Path_6110" d="M-934.13 560.439a2.045 2.045 0 0 1 .375.034 1.607 1.607 0 0 1 .325.094.737.737 0 0 1 .23.141.233.233 0 0 1 .085.167c0 .091-.081.184-.242.278a2.959 2.959 0 0 1-.832.262 13.7 13.7 0 0 1-1.575.2q-.983.076-2.479.077a8.177 8.177 0 0 0-1.6.159 5.735 5.735 0 0 0-1.423.467 3.251 3.251 0 0 0-1.02.754 1.5 1.5 0 0 0-.391 1.019 2.161 2.161 0 0 0 .186.883 2.037 2.037 0 0 0 .568.736 2.876 2.876 0 0 0 .953.505 4.347 4.347 0 0 0 1.357.188 21.608 21.608 0 0 0 2.63-.133 12.042 12.042 0 0 0 1.756-.333 6.508 6.508 0 0 0 1.158-.434c.3-.153.582-.3.845-.432a5.319 5.319 0 0 1 .807-.333 3.492 3.492 0 0 1 1.044-.133 1.539 1.539 0 0 1 .8.176.557.557 0 0 1 .29.5c0 .15-.111.315-.332.5a4.569 4.569 0 0 1-.941.562 11.353 11.353 0 0 1-1.466.552 18.955 18.955 0 0 1-1.905.476q-1.05.21-2.256.338a23.606 23.606 0 0 1-2.51.128 10.559 10.559 0 0 1-2.245-.227 6.289 6.289 0 0 1-1.833-.681 3.623 3.623 0 0 1-1.237-1.135 2.817 2.817 0 0 1-.451-1.6 2.264 2.264 0 0 1 .507-1.434 4.5 4.5 0 0 1 1.381-1.136 9.05 9.05 0 0 1 2.038-.8 14.491 14.491 0 0 1 2.48-.437 4.556 4.556 0 0 1-1.425-1.058 1.657 1.657 0 0 1-.41-1.024 1.419 1.419 0 0 1 .35-.92 3.455 3.455 0 0 1 .959-.775 7.689 7.689 0 0 1 1.419-.621 14.276 14.276 0 0 1 1.737-.455q.93-.182 1.924-.282t1.961-.1a11.761 11.761 0 0 1 1.876.145 6.572 6.572 0 0 1 1.587.455 3.488 3.488 0 0 1 1.147.78 2.013 2.013 0 0 1 .542 1.114.682.682 0 0 1-.12.368 1.191 1.191 0 0 1-.368.348 2.238 2.238 0 0 1-.6.257 3.1 3.1 0 0 1-.826.1 1.545 1.545 0 0 1-.4-.042.518.518 0 0 1-.229-.12.319.319 0 0 1-.1-.184 1.444 1.444 0 0 1-.019-.236 1.665 1.665 0 0 0-.132-.694 1.071 1.071 0 0 0-.441-.475 2.385 2.385 0 0 0-.8-.274 7.026 7.026 0 0 0-1.23-.09 13.153 13.153 0 0 0-1.835.133 10.514 10.514 0 0 0-1.75.385 4.946 4.946 0 0 0-1.309.6.978.978 0 0 0-.513.788 1.268 1.268 0 0 0 .332.881 2.471 2.471 0 0 0 .88.6 5.11 5.11 0 0 0 1.261.343 9.824 9.824 0 0 0 1.455.105z" class="cls-1" transform="translate(945.47 -555.145)"/>
            </g>
            <g id="Group_199" transform="translate(209.135 6.227)">
                <path id="Path_6111" d="M-930.928 560.43a3.447 3.447 0 0 1 .518.034.763.763 0 0 1 .362.151.694.694 0 0 1 .217.308 1.449 1.449 0 0 1 .073.5v.986l2.678-1.594a2.423 2.423 0 0 1 1.23-.359 1.346 1.346 0 0 1 .6.12.359.359 0 0 1 .242.317.411.411 0 0 1-.114.257 1.341 1.341 0 0 1-.344.273l-4.006 2.4.145 1.165a.372.372 0 0 0 .423.419 3.581 3.581 0 0 0 1.147-.244 13.509 13.509 0 0 0 1.592-.707l1.388-.719a1.117 1.117 0 0 1 .446-.094.669.669 0 0 1 .416.124.387.387 0 0 1 .162.322.845.845 0 0 1-.224.5 2.322 2.322 0 0 1-.8.566q-.9.454-1.587.762t-1.243.5a7.313 7.313 0 0 1-1.037.278 5.458 5.458 0 0 1-.959.085 2.539 2.539 0 0 1-1.624-.436 1.721 1.721 0 0 1-.536-1.414l-2.63 1.611a1.754 1.754 0 0 1-.465.184 1.872 1.872 0 0 1-.44.055 1.345 1.345 0 0 1-.652-.145.422.422 0 0 1-.266-.359q0-.24.435-.471l3.716-2.3v-2.082a.911.911 0 0 1 .168-.59 1.029 1.029 0 0 1 .375-.3 1.066 1.066 0 0 1 .385-.1z" class="cls-1" transform="translate(936.214 -560.43)"/>
            </g>
            <g id="Group_200" transform="translate(219.656 6.133)">
                <path id="Path_6112" d="M-921.2 560.35a6.18 6.18 0 0 1 .983.086 3.81 3.81 0 0 1 .972.291 2.211 2.211 0 0 1 .742.544 1.224 1.224 0 0 1 .295.835 2.1 2.1 0 0 1-.1.587 3.61 3.61 0 0 1-.289.689.716.716 0 0 0 .278.146 1.274 1.274 0 0 0 .337.042 1.791 1.791 0 0 0 .561-.1 4.942 4.942 0 0 0 .634-.266 7.45 7.45 0 0 0 .652-.368c.217-.137.422-.274.615-.411s.368-.267.524-.39.287-.226.392-.313a.353.353 0 0 1 .205-.06.431.431 0 0 1 .3.125.455.455 0 0 1 .133.348.991.991 0 0 1-.187.514 2.212 2.212 0 0 1-.694.608l-.663.514a8.328 8.328 0 0 1-.8.548 5.681 5.681 0 0 1-.88.437 2.49 2.49 0 0 1-.918.18 2.667 2.667 0 0 1-.608-.069 2.571 2.571 0 0 1-.6-.222 6.043 6.043 0 0 1-.989.873 6.311 6.311 0 0 1-1.236.678 7.923 7.923 0 0 1-1.473.441 8.515 8.515 0 0 1-1.683.158 3.809 3.809 0 0 1-.785-.094 3.132 3.132 0 0 1-.851-.312 2.17 2.17 0 0 1-.681-.569 1.343 1.343 0 0 1-.278-.858 2.744 2.744 0 0 1 .157-.821 4.529 4.529 0 0 1 .477-.99 6.116 6.116 0 0 1 .808-1.011 5.515 5.515 0 0 1 1.164-.9 6.481 6.481 0 0 1 1.545-.643 7.129 7.129 0 0 1 1.941-.247zm-.628 1.508a3.02 3.02 0 0 0-1.091.2 3.359 3.359 0 0 0-.93.531 2.721 2.721 0 0 0-.644.745 1.671 1.671 0 0 0-.242.852 1.877 1.877 0 0 0 .036.356.92.92 0 0 0 .151.359.86.86 0 0 0 .331.279 1.279 1.279 0 0 0 .58.111 2.874 2.874 0 0 0 1.079-.21 3.522 3.522 0 0 0 .936-.548 2.741 2.741 0 0 0 .652-.767 1.75 1.75 0 0 0 .24-.865 2.211 2.211 0 0 0-.03-.356.766.766 0 0 0-.145-.338.825.825 0 0 0-.332-.252 1.451 1.451 0 0 0-.595-.097z" class="cls-1" transform="translate(927.285 -560.35)"/>
            </g>
            <g id="Group_201" transform="translate(229.984 2.236)">
                <path id="Path_6113" d="M-914.189 562.405c-.3.411-.579.812-.845 1.2s-.514.753-.747 1.084a3.856 3.856 0 0 0-.284.475 1.061 1.061 0 0 0-.139.476.237.237 0 0 0 .079.189.4.4 0 0 0 .259.068 2.529 2.529 0 0 0 .64-.107q.385-.108.832-.283t.941-.4q.495-.226.971-.471t.911-.488c.29-.163.547-.312.773-.45a.832.832 0 0 1 .362-.094.467.467 0 0 1 .337.128.436.436 0 0 1 .133.326.741.741 0 0 1-.133.4 1.336 1.336 0 0 1-.482.4q-.785.505-1.587.96t-1.592.8a10.847 10.847 0 0 1-1.562.553 5.831 5.831 0 0 1-1.5.205 3.086 3.086 0 0 1-.808-.09 1.456 1.456 0 0 1-.526-.249.9.9 0 0 1-.283-.368 1.19 1.19 0 0 1-.085-.45 2.2 2.2 0 0 1 .205-.891 5.117 5.117 0 0 1 .458-.831q.362-.532.719-1.053t.693-1h-.518a1.933 1.933 0 0 1-.928-.154.43.43 0 0 1-.255-.351.425.425 0 0 1 .079-.21.876.876 0 0 1 .23-.232 1.527 1.527 0 0 1 .368-.184 1.5 1.5 0 0 1 .495-.077h1.3l2.546-3.589a1.339 1.339 0 0 1 .6-.467 1.989 1.989 0 0 1 .742-.141 1.6 1.6 0 0 1 .663.137.466.466 0 0 1 .3.454.627.627 0 0 1-.1.33c-.068.111-.159.242-.271.39-.073.1-.161.212-.266.346s-.216.277-.331.429l-.363.475c-.125.165-.246.326-.366.481l-.87 1.156h3.933c.193 0 .37.007.531.021a1.6 1.6 0 0 1 .416.086.634.634 0 0 1 .271.176.44.44 0 0 1 .1.3.468.468 0 0 1-.041.188.42.42 0 0 1-.158.171 1.006 1.006 0 0 1-.313.128 2.721 2.721 0 0 1-.513.07z" class="cls-1" transform="translate(918.52 -557.043)"/>
            </g>
            <g id="Group_202" transform="translate(236.33 3.769)">
                <path id="Path_6114" d="M-910.794 561.453a1.175 1.175 0 0 1 .471-.343 1.49 1.49 0 0 1 .543-.1 1.443 1.443 0 0 1 .789.21.619.619 0 0 1 .332.535c-.008.052-.018.1-.031.154a.4.4 0 0 1-.078.154c-.113.148-.206.275-.278.377l-.2.288c-.061.088-.118.176-.174.26l-.205.309q-.145.214-.326.467c-.12.169-.236.342-.343.518a4.44 4.44 0 0 0-.278.522 1.168 1.168 0 0 0-.114.471.3.3 0 0 0 .163.305 1.181 1.181 0 0 0 .464.072 2.63 2.63 0 0 0 .706-.1 5.562 5.562 0 0 0 .742-.266 7.049 7.049 0 0 0 .735-.372q.362-.209.682-.424t.591-.411q.27-.2.452-.351a.866.866 0 0 1 .482-.163.482.482 0 0 1 .356.138.47.47 0 0 1 .139.351.8.8 0 0 1-.139.42 1.377 1.377 0 0 1-.451.419q-.617.445-1.256.853a11.647 11.647 0 0 1-1.308.719 8.766 8.766 0 0 1-1.346.5 5.088 5.088 0 0 1-1.363.187 2.863 2.863 0 0 1-1.539-.355 1.22 1.22 0 0 1-.561-1.11 1.979 1.979 0 0 1 .157-.771 5.436 5.436 0 0 1 .373-.733c.146-.236.3-.465.46-.685a6.579 6.579 0 0 0 .41-.629c.04-.074.111-.189.211-.343s.207-.311.319-.471zm1.328-1.928a.923.923 0 0 1 .1-.407 1.165 1.165 0 0 1 .308-.382 1.737 1.737 0 0 1 .513-.283 2.151 2.151 0 0 1 .73-.111 1.8 1.8 0 0 1 .977.192.573.573 0 0 1 .278.484.881.881 0 0 1-.091.36 1.171 1.171 0 0 1-.272.364 1.456 1.456 0 0 1-.47.278 1.916 1.916 0 0 1-.688.111 2.357 2.357 0 0 1-1.05-.166.591.591 0 0 1-.335-.439z" class="cls-1" transform="translate(913.134 -558.344)"/>
            </g>
            <g id="Group_203" transform="translate(242.061 6.133)">
                <path id="Path_6115" d="M-900.645 561.138a2.306 2.306 0 0 1-.084.587 1.928 1.928 0 0 1-.278.6 1.657 1.657 0 0 1-.494.471 1.4 1.4 0 0 1-.749.189.582.582 0 0 1-.307-.052.216.216 0 0 1-.066-.18c0-.051 0-.127.006-.226s.006-.2.006-.288a.522.522 0 0 0-.06-.26c-.04-.072-.14-.107-.3-.107a1.572 1.572 0 0 0-.621.15 3.917 3.917 0 0 0-.688.39 5.9 5.9 0 0 0-.669.543 6.618 6.618 0 0 0-.586.617 3.377 3.377 0 0 0-.41.6 1.133 1.133 0 0 0-.151.5.526.526 0 0 0 .3.471 1.611 1.611 0 0 0 .8.171 5.651 5.651 0 0 0 1.158-.128 11.525 11.525 0 0 0 1.224-.326q.61-.2 1.176-.428t1.032-.441c.31-.14.569-.259.779-.359s.345-.163.41-.185a1.074 1.074 0 0 1 .362-.068.588.588 0 0 1 .247.047.505.505 0 0 1 .162.111.39.39 0 0 1 .085.138.421.421 0 0 1 .024.124.883.883 0 0 1-.024.184.514.514 0 0 1-.181.244 4.622 4.622 0 0 1-.392.262c-.22.14-.507.3-.857.494s-.752.389-1.207.6a13.946 13.946 0 0 1-1.46.587 13.779 13.779 0 0 1-1.611.441 7.883 7.883 0 0 1-1.64.175 3.984 3.984 0 0 1-1.092-.137 2.557 2.557 0 0 1-.8-.372 1.638 1.638 0 0 1-.495-.553 1.414 1.414 0 0 1-.169-.668 2.024 2.024 0 0 1 .253-.887 5.174 5.174 0 0 1 .7-1.023 8.707 8.707 0 0 1 1.05-1.028 8.31 8.31 0 0 1 1.309-.9 7.775 7.775 0 0 1 1.472-.634 5.148 5.148 0 0 1 1.551-.24 2.71 2.71 0 0 1 .5.044 1.5 1.5 0 0 1 .41.132.715.715 0 0 1 .277.244.654.654 0 0 1 .098.374z" class="cls-1" transform="translate(908.27 -560.35)"/>
            </g>
        </g>
        <g id="Group_205" transform="translate(-793.533 558.259)">
            <path id="Path_6116" d="M-842.013 567.28s19.013-11.705 25.094-4.81c4.374 4.961 7.011 19.436-4.331 31.621-3.142 3.377-12.022 8.91-16.862 11.357v5.452h7.279s22.167-13.952 22.412-33.236-11.025-19.878-14.871-19.88c-8.866-.004-18.721 9.496-18.721 9.496z" class="cls-2" transform="translate(842.013 -557.788)"/>
        </g>
    </g>
</svg>
